<?xml version="1.0" encoding="UTF-8"?>
<!DOCTYPE svg PUBLIC "-//W3C//DTD SVG 1.1//EN" "http://www.w3.org/Graphics/SVG/1.1/DTD/svg11.dtd">
<!-- Creator: CorelDRAW 2018 (64-Bit) -->
<svg xmlns="http://www.w3.org/2000/svg" xml:space="preserve" width="300px" height="210px" version="1.1" style="shape-rendering:geometricPrecision; text-rendering:geometricPrecision; image-rendering:optimizeQuality; fill-rule:evenodd; clip-rule:evenodd"
viewBox="0 0 2743 1920.1"
 xmlns:xlink="http://www.w3.org/1999/xlink">
 <defs>
  <style type="text/css">
   <![CDATA[
    .fil0 {fill:none}
    .fil1 {fill:#2196f5;fill-rule:nonzero}
    .fil2 {fill:#ff693b;fill-rule:nonzero}
   ]]>
  </style>
 </defs>
 <g id="Layer_x0020_1">
  <metadata id="CorelCorpID_0Corel-Layer"/>
  <g id="_2888662545264">
   <rect class="fil0" width="2743" height="1920.1"/>
   <path class="fil1" d="M769.7 222.2c-8.7,-12.4 -5.7,-29.5 6.7,-38.2 12.3,-8.7 29.4,-5.7 38.1,6.6l70.8 101c0.9,1.2 1.6,2.5 2.2,3.7 2.7,4.6 6.6,11 10.4,17.2 18.8,30.7 34.8,56.8 34.8,96.6l0 360.1c0,47.1 -19.3,90 -50.4,121.1 -31,31.1 -73.9,50.3 -121.1,50.3l-360.1 0c-15.1,0 -27.4,-12.2 -27.4,-27.4 0,-15.1 12.3,-27.4 27.4,-27.4l360.1 0c32,0 61.2,-13.1 82.3,-34.3 21.2,-21.1 34.3,-50.3 34.3,-82.3l0 -360.1c0,-24.6 -12.2,-44.6 -26.6,-68.1 -3.1,-5.1 -6.3,-10.3 -10.9,-18.2l-70.6 -100.6z"/>
   <path class="fil1" d="M835.7 575.7c0,15.1 -12.3,27.4 -27.4,27.4 -15.2,0 -27.4,-12.3 -27.4,-27.4l0 -318.1c0,-8.5 -1.7,-16.4 -4.7,-23.7 -3.1,-7.5 -7.8,-14.3 -13.6,-20.1l-1.2 -1.3c-5.4,-5.1 -11.8,-9.4 -19,-12.3 -7.2,-3 -15.2,-4.7 -23.6,-4.7l-469.2 0c-17,0 -32.5,7 -43.8,18.3 -11.2,11.2 -18.2,26.7 -18.2,43.8l0 469.2c0,8.4 1.6,16.4 4.6,23.6 3.1,7.5 7.8,14.4 13.6,20.2 5.8,5.8 12.7,10.4 20.2,13.6 7.2,3 15.2,4.6 23.6,4.6l469.2 0c17.1,0 32.6,-7 43.9,-18.2 11.2,-11.2 18.2,-26.8 18.2,-43.8 0,-15.2 12.2,-27.5 27.4,-27.5 15.1,0 27.4,12.3 27.4,27.5 0,32.1 -13.1,61.3 -34.3,82.5l-0.1 0.1c-21.2,21.1 -50.4,34.3 -82.5,34.3l-469.2 0c-15.7,0 -30.8,-3.2 -44.6,-9 -14.4,-5.9 -27.3,-14.6 -38,-25.3 -10.7,-10.8 -19.4,-23.6 -25.4,-38 -5.7,-13.8 -8.9,-28.9 -8.9,-44.6l0 -469.2c0,-32.2 13.1,-61.4 34.3,-82.6 21.2,-21.2 50.4,-34.3 82.6,-34.3l469.2 0c15.7,0 30.8,3.1 44.6,8.9 13.5,5.6 25.8,13.7 36.3,23.8l1.7 1.6c10.7,10.7 19.4,23.6 25.4,37.9 5.7,13.9 8.9,29 8.9,44.7l0 318.1z"/>
   <path class="fil1" d="M1608.5 222.2c-8.7,-12.4 -5.7,-29.5 6.7,-38.2 12.3,-8.7 29.4,-5.7 38.1,6.6l70.8 101c0.9,1.2 1.6,2.5 2.3,3.7 2.6,4.6 6.6,11 10.3,17.2 18.8,30.7 34.8,56.8 34.8,96.6l0 360.1c0,47.1 -19.3,90 -50.4,121.1 -31,31.1 -73.9,50.3 -121.1,50.3l-360 0c-15.2,0 -27.5,-12.2 -27.5,-27.4 0,-15.1 12.3,-27.4 27.5,-27.4l360 0c32.1,0 61.2,-13.1 82.4,-34.3 21.1,-21.1 34.2,-50.3 34.2,-82.3l0 -360.1c0,-24.6 -12.2,-44.6 -26.6,-68.1 -3.1,-5.1 -6.3,-10.3 -10.9,-18.2l-70.6 -100.6z"/>
   <path class="fil1" d="M769.7 1061c-8.7,-12.4 -5.7,-29.5 6.7,-38.2 12.3,-8.7 29.4,-5.7 38.1,6.7l70.8 100.9c0.9,1.2 1.6,2.5 2.2,3.7 2.7,4.6 6.6,11 10.4,17.2 18.8,30.7 34.8,56.8 34.8,96.6l0 360.1c0,47.2 -19.3,90 -50.4,121.1 -31,31.1 -73.9,50.4 -121.1,50.4l-360.1 0c-15.1,0 -27.4,-12.3 -27.4,-27.5 0,-15.1 12.3,-27.4 27.4,-27.4l360.1 0c32,0 61.2,-13.1 82.3,-34.3 21.2,-21.1 34.3,-50.3 34.3,-82.3l0 -360.1c0,-24.6 -12.2,-44.6 -26.6,-68.1 -3.1,-5.1 -6.3,-10.3 -10.9,-18.2l-70.6 -100.6z"/>
   <path class="fil1" d="M1608.5 1061c-8.7,-12.4 -5.7,-29.5 6.7,-38.2 12.3,-8.7 29.4,-5.7 38.1,6.7l70.8 100.9c0.9,1.2 1.6,2.5 2.3,3.7 2.6,4.6 6.6,11 10.3,17.2 18.8,30.7 34.8,56.8 34.8,96.6l0 360.1c0,47.2 -19.3,90 -50.4,121.1 -31,31.1 -73.9,50.4 -121.1,50.4l-360 0c-15.2,0 -27.5,-12.3 -27.5,-27.5 0,-15.1 12.3,-27.4 27.5,-27.4l360 0c32.1,0 61.2,-13.1 82.4,-34.3 21.1,-21.1 34.2,-50.3 34.2,-82.3l0 -360.1c0,-24.6 -12.2,-44.6 -26.6,-68.1 -3.1,-5.1 -6.3,-10.3 -10.9,-18.2l-70.6 -100.6z"/>
   <path class="fil2" d="M2447.3 222.2c-8.7,-12.4 -5.7,-29.5 6.7,-38.2 12.3,-8.7 29.4,-5.7 38.1,6.6l70.9 101c0.8,1.2 1.5,2.5 2.2,3.7 2.7,4.6 6.6,11 10.4,17.2 18.7,30.7 34.7,56.8 34.7,96.6l0 1198.9c0,47.2 -19.3,90 -50.3,121.1 -31.1,31.1 -74,50.4 -121.2,50.4l-360 0c-15.2,0 -27.5,-12.3 -27.5,-27.5 0,-15.1 12.3,-27.4 27.5,-27.4l360 0c32.1,0 61.2,-13.1 82.4,-34.3 21.1,-21.1 34.3,-50.3 34.3,-82.3l0 -1198.9c0,-24.6 -12.3,-44.6 -26.7,-68.1 -3.1,-5.1 -6.3,-10.3 -10.9,-18.2l-70.6 -100.6z"/>
   <path class="fil1" d="M1674.5 575.7c0,15.1 -12.2,27.4 -27.4,27.4 -15.1,0 -27.4,-12.3 -27.4,-27.4l0 -318.1c0,-8.5 -1.7,-16.4 -4.7,-23.7 -3.1,-7.5 -7.8,-14.3 -13.6,-20.1l-1.1 -1.3c-5.5,-5.1 -11.9,-9.4 -19.1,-12.3 -7.2,-3 -15.2,-4.7 -23.6,-4.7l-469.2 0c-17,0 -32.5,7 -43.8,18.3 -11.2,11.2 -18.2,26.7 -18.2,43.8l0 469.2c0,8.4 1.6,16.4 4.6,23.6 3.2,7.5 7.8,14.4 13.6,20.2 5.8,5.8 12.7,10.4 20.2,13.6 7.2,3 15.2,4.6 23.6,4.6l469.2 0c17.1,0 32.6,-7 43.9,-18.2 11.2,-11.2 18.2,-26.8 18.2,-43.8 0,-15.2 12.3,-27.5 27.4,-27.5 15.2,0 27.4,12.3 27.4,27.5 0,32.1 -13.1,61.3 -34.3,82.5l-0.1 0.1c-21.2,21.1 -50.4,34.3 -82.5,34.3l-469.2 0c-15.7,0 -30.8,-3.2 -44.6,-9 -14.4,-5.9 -27.2,-14.6 -38,-25.3 -10.7,-10.8 -19.4,-23.6 -25.3,-38 -5.8,-13.8 -9,-28.9 -9,-44.6l0 -469.2c0,-32.2 13.2,-61.4 34.3,-82.6 21.2,-21.2 50.5,-34.3 82.6,-34.3l469.2 0c15.7,0 30.8,3.1 44.6,8.9 13.5,5.6 25.8,13.7 36.3,23.8l1.7 1.6c10.7,10.7 19.4,23.6 25.4,37.9 5.7,13.9 8.9,29 8.9,44.7l0 318.1z"/>
   <path class="fil1" d="M835.7 1414.5c0,15.2 -12.3,27.4 -27.4,27.4 -15.2,0 -27.4,-12.2 -27.4,-27.4l0 -318.1c0,-8.4 -1.7,-16.4 -4.7,-23.6 -3.1,-7.6 -7.8,-14.4 -13.6,-20.2 -5.8,-5.8 -12.7,-10.5 -20.2,-13.6 -7.2,-3 -15.2,-4.7 -23.6,-4.7l-469.2 0c-17,0 -32.5,7 -43.8,18.3l-1.2 1.2c-10.6,11 -17,26.1 -17,42.6l0 469.2c0,8.4 1.6,16.4 4.6,23.6 3.1,7.5 7.8,14.4 13.6,20.2 5.8,5.8 12.7,10.5 20.2,13.6 7.2,3 15.2,4.6 23.6,4.6l469.2 0c17.1,0 32.6,-6.9 43.9,-18.2 11.2,-11.2 18.2,-26.7 18.2,-43.8 0,-15.2 12.2,-27.5 27.4,-27.5 15.1,0 27.4,12.3 27.4,27.5 0,32.1 -13.1,61.3 -34.3,82.5l-0.1 0.1c-21.2,21.1 -50.4,34.3 -82.5,34.3l-469.2 0c-15.7,0 -30.8,-3.2 -44.6,-8.9 -14.4,-6 -27.3,-14.7 -38,-25.4 -10.7,-10.7 -19.4,-23.6 -25.4,-38 -5.7,-13.8 -8.9,-28.9 -8.9,-44.6l0 -469.2c0,-31.3 12.5,-59.8 32.7,-80.9l1.6 -1.7c21.2,-21.2 50.4,-34.3 82.6,-34.3l469.2 0c15.7,0 30.8,3.2 44.6,8.9 14.4,6 27.3,14.7 38,25.4 10.7,10.7 19.4,23.6 25.4,38 5.7,13.8 8.9,28.9 8.9,44.6l0 318.1z"/>
   <path class="fil1" d="M1674.5 1414.5c0,15.2 -12.2,27.4 -27.4,27.4 -15.1,0 -27.4,-12.2 -27.4,-27.4l0 -318.1c0,-8.4 -1.7,-16.4 -4.7,-23.6 -3.1,-7.6 -7.8,-14.4 -13.6,-20.2 -5.8,-5.8 -12.6,-10.5 -20.2,-13.6 -7.2,-3 -15.1,-4.7 -23.6,-4.7l-469.2 0c-17,0 -32.5,7 -43.8,18.3l-1.2 1.2c-10.5,11 -17,26.1 -17,42.6l0 469.2c0,8.4 1.6,16.4 4.6,23.6 3.2,7.5 7.8,14.4 13.6,20.2 5.8,5.8 12.7,10.5 20.2,13.6 7.2,3 15.2,4.6 23.6,4.6l469.2 0c17.1,0 32.6,-6.9 43.9,-18.2 11.2,-11.2 18.2,-26.7 18.2,-43.8 0,-15.2 12.3,-27.5 27.4,-27.5 15.2,0 27.4,12.3 27.4,27.5 0,32.1 -13.1,61.3 -34.3,82.5l-0.1 0.1c-21.2,21.1 -50.4,34.3 -82.5,34.3l-469.2 0c-15.7,0 -30.8,-3.2 -44.6,-8.9 -14.4,-6 -27.2,-14.7 -38,-25.4 -10.7,-10.7 -19.4,-23.6 -25.3,-38 -5.8,-13.8 -9,-28.9 -9,-44.6l0 -469.2c0,-31.3 12.5,-59.8 32.7,-80.9l1.6 -1.7c21.2,-21.2 50.5,-34.3 82.6,-34.3l469.2 0c15.7,0 30.8,3.2 44.6,8.9 14.4,6 27.3,14.7 38,25.4 10.7,10.7 19.4,23.6 25.4,38 5.7,13.8 8.9,28.9 8.9,44.6l0 318.1z"/>
   <path class="fil2" d="M2513.4 1414.5c0,15.2 -12.3,27.5 -27.5,27.5 -15.1,0 -27.4,-12.3 -27.4,-27.5l0 -1156.9c0,-8.4 -1.7,-16.4 -4.7,-23.6 -3.1,-7.7 -7.8,-14.5 -13.5,-20.3 -5.8,-5.7 -12.6,-10.4 -20.2,-13.5 -7.3,-3 -15.2,-4.7 -23.7,-4.7l-469.2 0c-17,0 -32.5,7 -43.8,18.3 -11.2,11.2 -18.2,26.8 -18.2,43.8l0 1308c0,8.4 1.6,16.4 4.6,23.6 3.2,7.5 7.8,14.4 13.6,20.2 5.9,5.8 12.7,10.5 20.2,13.6 7.2,3 15.2,4.6 23.6,4.6l469.2 0c17.1,0 32.6,-6.9 43.8,-18.2l1.2 -1.1c10.6,-11.2 17.1,-26.2 17.1,-42.7 0,-15.2 12.3,-27.4 27.4,-27.4 15.2,0 27.5,12.2 27.5,27.4 0,31.3 -12.5,59.8 -32.8,80.9l-1.6 1.7c-21.1,21.2 -50.4,34.3 -82.6,34.3l-469.2 0c-15.6,0 -30.7,-3.2 -44.6,-8.9 -14.3,-6 -27.2,-14.7 -38,-25.4 -10.7,-10.7 -19.4,-23.6 -25.3,-38 -5.8,-13.8 -9,-28.9 -9,-44.6l0 -1308c0,-32.2 13.2,-61.4 34.3,-82.6 21.2,-21.2 50.5,-34.3 82.6,-34.3l469.2 0c15.7,0 30.8,3.2 44.7,8.9 14.2,5.9 27.1,14.6 37.8,25.4l0.1 0.1c10.8,10.8 19.5,23.6 25.4,37.9 5.8,13.8 9,28.9 9,44.6l0 1156.9z"/>
   <polygon class="fil2" points="355.6,525.2 355.6,458 450.1,458 450.1,364.1 517.2,364.1 517.2,458 612.9,458 612.9,525.2 517.2,525.2 517.2,620.2 450.1,620.2 450.1,525.2 "/>
   <path class="fil2" d="M1285.6 1273.9l0 -73.8 73.8 0 0 73.8 -73.8 0zm-91.2 90.1l0 -67.1 257.3 0 0 67.1 -257.3 0zm91.2 97.3l0 -73.8 73.8 0 0 73.8 -73.8 0z"/>
   <path class="fil1" d="M2037.7 886.4l0 -67.7 248.3 0 0 67.7 -248.3 0zm0 116.4l0 -67.7 248.3 0 0 67.7 -248.3 0z"/>
   <polygon class="fil2" points="1200,526.3 1200,458 1446.1,458 1446.1,526.3 "/>
   <polygon class="fil2" points="359.2,1205 439.2,1205 483.9,1283.1 529.2,1205 609.2,1205 529.8,1328.5 609.2,1457 529.2,1457 483.9,1379.9 439.2,1457 359.2,1457 435.8,1330.5 "/>
  </g>
 </g>
</svg>
