<?xml version="1.0" encoding="utf-8"?>
<!-- Generator: Adobe Illustrator 24.1.2, SVG Export Plug-In . SVG Version: 6.00 Build 0)  -->
<svg version="1.1" id="Слой_1" xmlns="http://www.w3.org/2000/svg" xmlns:xlink="http://www.w3.org/1999/xlink" x="0px" y="0px"
	 viewBox="0 0 448.6 481.9" style="enable-background:new 0 0 448.6 481.9;" xml:space="preserve">
<style type="text/css">
	.st0{fill:#A9CCED;}
	.st1{fill:url(#SVGID_1_);}
	.st2{fill:url(#SVGID_2_);}
	.st3{fill:#9A7FCC;}
	.st4{fill:url(#SVGID_3_);}
	.st5{fill:url(#SVGID_4_);}
	.st6{fill:url(#SVGID_5_);}
	.st7{fill:url(#SVGID_6_);}
	.st8{fill:url(#SVGID_7_);}
	.st9{fill:url(#SVGID_8_);}
	.st10{fill:none;stroke:url(#SVGID_9_);stroke-width:2.415;stroke-miterlimit:10;}
	.st11{fill:url(#SVGID_10_);}
	.st12{fill:url(#SVGID_11_);}
	.st13{fill:#2B2198;}
	.st14{fill:url(#SVGID_12_);}
	.st15{fill:#C943C3;}
	.st16{fill:#FFFFFF;}
	.st17{fill:url(#SVGID_13_);}
	.st18{fill:none;stroke:#7F5DB5;stroke-width:1.3417;stroke-linecap:round;stroke-miterlimit:10;}
	.st19{fill:url(#SVGID_14_);}
	.st20{fill:url(#SVGID_15_);}
	.st21{fill:#F49A7F;}
	.st22{fill:url(#SVGID_16_);}
	.st23{fill:url(#SVGID_17_);}
	.st24{fill:url(#SVGID_18_);}
	.st25{fill:url(#SVGID_19_);}
	.st26{fill:#FFC2B1;}
	.st27{fill:url(#SVGID_20_);}
	.st28{fill:#6F9BD7;}
	.st29{fill:url(#SVGID_21_);}
	.st30{fill:url(#SVGID_22_);}
	.st31{fill:url(#SVGID_23_);}
	.st32{fill:#2B1F9B;}
	.st33{fill:url(#SVGID_24_);}
	.st34{fill:url(#SVGID_25_);}
	.st35{fill:url(#SVGID_26_);}
	.st36{fill:url(#SVGID_27_);}
	.st37{fill:url(#SVGID_28_);}
	.st38{fill:url(#SVGID_29_);}
	.st39{fill:url(#SVGID_30_);}
	.st40{fill:url(#SVGID_31_);}
	.st41{fill:url(#SVGID_32_);}
	.st42{fill:url(#SVGID_33_);}
	.st43{fill:url(#SVGID_34_);}
	.st44{fill:url(#SVGID_35_);}
	.st45{fill:url(#SVGID_36_);}
	.st46{fill:url(#SVGID_37_);}
	.st47{fill:url(#SVGID_38_);}
	.st48{fill:url(#SVGID_39_);}
	.st49{fill:url(#SVGID_40_);}
	.st50{fill:url(#SVGID_41_);}
	.st51{fill:none;stroke:url(#SVGID_42_);stroke-width:2.415;stroke-linecap:round;stroke-miterlimit:10;}
	.st52{fill:none;stroke:url(#SVGID_43_);stroke-width:2.415;stroke-linecap:round;stroke-miterlimit:10;}
	.st53{fill:none;stroke:url(#SVGID_44_);stroke-width:2.415;stroke-linecap:round;stroke-miterlimit:10;}
	.st54{fill:none;stroke:url(#SVGID_45_);stroke-width:2.415;stroke-linecap:round;stroke-miterlimit:10;}
	.st55{fill:none;stroke:url(#SVGID_46_);stroke-width:2.415;stroke-linecap:round;stroke-miterlimit:10;}
	.st56{fill:none;stroke:url(#SVGID_47_);stroke-width:2.415;stroke-linecap:round;stroke-miterlimit:10;}
	.st57{fill:none;stroke:url(#SVGID_48_);stroke-width:2.415;stroke-linecap:round;stroke-miterlimit:10;}
	.st58{fill:none;stroke:url(#SVGID_49_);stroke-width:2.415;stroke-linecap:round;stroke-miterlimit:10;}
	.st59{fill:none;stroke:url(#SVGID_50_);stroke-width:2.6834;stroke-linecap:round;stroke-miterlimit:10;}
	.st60{fill:url(#SVGID_51_);}
	.st61{fill:url(#SVGID_52_);}
	.st62{fill:url(#SVGID_53_);}
	.st63{fill:url(#SVGID_54_);}
	.st64{fill:url(#SVGID_55_);}
	.st65{fill:url(#SVGID_56_);}
	.st66{fill:url(#SVGID_57_);}
	.st67{fill:url(#SVGID_58_);}
	.st68{fill:url(#SVGID_59_);}
	.st69{fill:url(#SVGID_60_);}
	.st70{fill:url(#SVGID_61_);}
	.st71{fill:url(#SVGID_62_);}
	.st72{fill:url(#SVGID_63_);}
	.st73{fill:url(#SVGID_64_);}
	.st74{fill:url(#SVGID_65_);}
	.st75{fill:#FFC2B0;}
	.st76{fill:url(#SVGID_66_);}
	.st77{fill:url(#SVGID_67_);}
	.st78{fill:url(#SVGID_68_);}
	.st79{fill:url(#SVGID_69_);}
	.st80{fill:url(#SVGID_70_);}
	.st81{fill:#7BDDFF;}
	.st82{fill:url(#SVGID_71_);}
	.st83{fill:url(#SVGID_72_);}
	.st84{fill:none;stroke:url(#SVGID_73_);stroke-width:2.6834;stroke-linecap:round;stroke-miterlimit:10;}
	.st85{fill:none;stroke:url(#SVGID_74_);stroke-width:2.6834;stroke-linecap:round;stroke-miterlimit:10;}
	.st86{fill:none;stroke:url(#SVGID_75_);stroke-width:2.6834;stroke-linecap:round;stroke-miterlimit:10;}
	.st87{fill:url(#SVGID_76_);}
	.st88{fill:url(#SVGID_77_);}
	.st89{fill:url(#SVGID_78_);}
	.st90{fill:none;stroke:url(#SVGID_79_);stroke-width:2.6834;stroke-linecap:round;stroke-miterlimit:10;}
	.st91{fill:none;stroke:url(#SVGID_80_);stroke-width:2.6834;stroke-linecap:round;stroke-miterlimit:10;}
	.st92{fill:none;stroke:url(#SVGID_81_);stroke-width:2.6834;stroke-linecap:round;stroke-miterlimit:10;}
	.st93{fill:url(#SVGID_82_);}
	.st94{fill:url(#SVGID_83_);}
	.st95{fill:url(#SVGID_84_);}
	.st96{fill:url(#SVGID_85_);}
	.st97{fill:url(#SVGID_86_);}
	.st98{fill:url(#SVGID_87_);}
	.st99{fill:url(#SVGID_88_);}
	.st100{fill:url(#SVGID_89_);}
	.st101{fill:url(#SVGID_90_);}
	.st102{fill:none;stroke:url(#SVGID_91_);stroke-width:2.6834;stroke-linecap:round;stroke-linejoin:round;stroke-miterlimit:10;}
	.st103{fill:#662222;}
	.st104{fill:url(#SVGID_92_);}
</style>
<path class="st0" d="M376.6,237.8c-9.9-9.2,9,3.9,0-6.2c-7.3-8.2,17.1-11.3,10.1-19.7l-145.5,84.2c-8,4.7-8.9,11.7-1.9,15.8
	l67.9,39.1c8.3,4.8,22.8,4.1,32.3-1.4l59-33C391.6,311.5,382.8,243.6,376.6,237.8z"/>
<ellipse transform="matrix(0.9364 -0.3508 0.3508 0.9364 -96.9669 69.4836)" class="st0" cx="143.3" cy="302.4" rx="16.9" ry="12.3"/>
<path class="st0" d="M75.7,436.7c2.4,6.4,11.4,8.9,20.1,5.6s24.4-8.9,22-15.3c-2.4-6.4-21.9-11-30.6-7.8S73.3,430.3,75.7,436.7z"/>
<linearGradient id="SVGID_1_" gradientUnits="userSpaceOnUse" x1="147.4917" y1="308.2839" x2="329.6633" y2="308.2839">
	<stop  offset="0" style="stop-color:#EC6C1E"/>
	<stop  offset="1" style="stop-color:#AF1D57"/>
</linearGradient>
<path class="st1" d="M325.6,270.3l-116.6,67.2l-47.9-27.7c0-0.5,0-1-0.2-1.5c-1-2.6-4.7-3.7-8.4-2.3c-3.6,1.4-5.8,4.6-4.8,7.3
	c0.9,2.5,4.3,3.5,7.7,2.5l51.6,29.8c0.6,0.4,1.3,0.5,2,0.5s1.4-0.2,2-0.5l118.6-68.4L325.6,270.3z"/>
<g>
	<linearGradient id="SVGID_2_" gradientUnits="userSpaceOnUse" x1="309.1536" y1="346.6061" x2="455.8221" y2="346.6061">
		<stop  offset="4.748603e-02" style="stop-color:#61DDDA"/>
		<stop  offset="0.8212" style="stop-color:#2FA0EC"/>
	</linearGradient>
	<path class="st2" d="M420.9,399.2c1.4-1,2.8-1.9,4.3-2.7l-103.9-60l68-37.8l-4-7L311.2,333c-1.2,0.7-2,2-2,3.5c0,1.4,0.8,2.8,2,3.5
		l106.6,61.5C418.8,400.7,419.9,399.9,420.9,399.2z"/>
</g>
<g>
	
		<rect x="77.5" y="350.9" transform="matrix(0.8664 -0.4993 0.4993 0.8664 -147.8839 157.0032)" class="st3" width="283.9" height="8.1"/>
</g>
<g>
	<linearGradient id="SVGID_3_" gradientUnits="userSpaceOnUse" x1="254.9428" y1="351.364" x2="399.0799" y2="351.364">
		<stop  offset="8.379889e-02" style="stop-color:#CF4EC9"/>
		<stop  offset="1" style="stop-color:#F28FE9"/>
	</linearGradient>
	<path class="st4" d="M259,435l-4-7l85.6-49.2l-62.9-36.3c-1.2-0.7-2-2-2-3.5c0-1.4,0.8-2.8,2-3.5l117.4-67.8l4,7L287.7,339
		l62.9,36.3c1.2,0.7,2,2,2,3.5s-0.8,2.8-2,3.5L259,435z"/>
</g>
<linearGradient id="SVGID_4_" gradientUnits="userSpaceOnUse" x1="1016.1757" y1="259.7241" x2="1220.658" y2="55.2417" gradientTransform="matrix(-1 0 0 1 1472.6113 0)">
	<stop  offset="6.983240e-02" style="stop-color:#A9BFFC"/>
	<stop  offset="0.433" style="stop-color:#D4DDFA"/>
	<stop  offset="0.8073" style="stop-color:#F9FAFE"/>
	<stop  offset="1" style="stop-color:#EBEFFD"/>
</linearGradient>
<path class="st5" d="M391.6,319.2l-76.7-54.7c-5.7-3.3-10.4-12.2-10.4-19.8l-8.1-233.9c0,0,8.5-5.6,10.1-6.4c4-1.9,4-1.9,6.8-0.4
	l82.9,49.1c5.7,3.3,10.4,12.2,10.4,19.8v234C406.5,313.4,393.4,319.8,391.6,319.2z"/>
<linearGradient id="SVGID_5_" gradientUnits="userSpaceOnUse" x1="1016.3248" y1="259.8731" x2="1220.8071" y2="55.3908" gradientTransform="matrix(-1 0 0 1 1472.6113 0)">
	<stop  offset="9.776536e-02" style="stop-color:#93A1E6"/>
	<stop  offset="0.5615" style="stop-color:#A9BFFC"/>
	<stop  offset="1" style="stop-color:#D4DDFA"/>
</linearGradient>
<path class="st6" d="M368.4,69c-13.8,3.7-27.5,7.5-41.1,11.6c-9.4,2.9-18.8,5.8-28.2,8.8l5.4,155.3c0,7.6,4.7,16.5,10.4,19.8
	l76.7,54.7c1.8,0.6,14.9-5.8,14.9-12.2v-234c0-4.7-1.8-10-4.6-14.1C390.9,62.7,379.7,65.9,368.4,69z"/>
<linearGradient id="SVGID_6_" gradientUnits="userSpaceOnUse" x1="290.8069" y1="164.6743" x2="392.5582" y2="164.6743">
	<stop  offset="0" style="stop-color:#0E29B5"/>
	<stop  offset="0.9215" style="stop-color:#2E218F"/>
</linearGradient>
<path class="st7" d="M387.5,318.8L304.6,271c-5.7-3.3-10.4-12.2-10.4-19.8v-234c0-6.4,3.9-9.4,8.7-6.6l82.9,47.8
	c5.7,3.3,10.4,12.2,10.4,19.8v234C396.2,318.6,392.3,321.5,387.5,318.8z"/>
<linearGradient id="SVGID_7_" gradientUnits="userSpaceOnUse" x1="1030.8618" y1="260.9739" x2="1226.1498" y2="65.686" gradientTransform="matrix(-1 0 0 1 1472.6113 0)">
	<stop  offset="0" style="stop-color:#2B1F56"/>
	<stop  offset="0.8184" style="stop-color:#2E218F"/>
</linearGradient>
<path class="st8" d="M384.5,312.1l-79.2-45.6c-5.4-3.1-9.9-11.7-9.9-18.9V20.8c0-6.1,3.8-9,8.3-6.3l79.2,45.6
	c5.4,3.1,9.9,11.7,9.9,18.9v226.8C392.8,312,389.1,314.8,384.5,312.1z"/>
<linearGradient id="SVGID_8_" gradientUnits="userSpaceOnUse" x1="309.5696" y1="115.9473" x2="346.1881" y2="115.9473">
	<stop  offset="4.748603e-02" style="stop-color:#61DDDA"/>
	<stop  offset="0.8212" style="stop-color:#2FA0EC"/>
</linearGradient>
<path class="st9" d="M346.2,126.5c0,11.6-8.2,16.3-18.3,10.4s-18.3-20-18.3-31.6s8.2-16.3,18.3-10.4
	C338,100.8,346.2,114.9,346.2,126.5z"/>
<linearGradient id="SVGID_9_" gradientUnits="userSpaceOnUse" x1="304.7831" y1="115.896" x2="350.7947" y2="115.896">
	<stop  offset="4.748603e-02" style="stop-color:#61DDDA"/>
	<stop  offset="0.8212" style="stop-color:#2FA0EC"/>
</linearGradient>
<ellipse transform="matrix(0.8633 -0.5047 0.5047 0.8633 -13.6832 181.274)" class="st10" cx="327.8" cy="115.9" rx="17.7" ry="30.7"/>
<linearGradient id="SVGID_10_" gradientUnits="userSpaceOnUse" x1="309.5696" y1="104.2053" x2="346.1882" y2="104.2053">
	<stop  offset="0" style="stop-color:#EC6C1E"/>
	<stop  offset="1" style="stop-color:#AF1D57"/>
</linearGradient>
<path class="st11" d="M327.5,102.3c0-0.3,0.1-0.5,0.1-0.8c0-0.4-0.1-0.8-0.1-1.1c-0.2-2-0.3-3.8-0.1-5.7c-6.3-3.4-11.8-2.8-14.9,1.1
	c2,3.4,15,20.2,15,20.2C327.8,115.9,326.9,105.7,327.5,102.3z"/>
<linearGradient id="SVGID_11_" gradientUnits="userSpaceOnUse" x1="309.5696" y1="104.2514" x2="346.1882" y2="104.2514">
	<stop  offset="8.379889e-02" style="stop-color:#CF4EC9"/>
	<stop  offset="1" style="stop-color:#F28FE9"/>
</linearGradient>
<path class="st12" d="M327.4,116l14.3-5.8c-3.4-6.4-8.3-12.1-13.8-15.3c-2.4-1.4-4.7-2.2-6.8-2.4L327.4,116z"/>
<ellipse transform="matrix(0.8633 -0.5047 0.5047 0.8633 -13.7746 181.0391)" class="st13" cx="327.3" cy="115.9" rx="3.1" ry="5.4"/>
<path class="st0" d="M231.5,276.8L141.2,226c-3.5-2-9.6-1.7-13.6,0.6l-120,71.3c-4,2.3-4.4,5.8-1,7.8l90.3,50.8
	c3.5,2,9.6,1.7,13.6-0.6l120-71.3C234.5,282.3,235,278.8,231.5,276.8z"/>
<path class="st13" d="M236,274l-90.3-50.8c-3.5-2-9.6-1.7-13.6,0.6L12.1,295c-4,2.3-4.4,5.8-1,7.8l90.3,50.8c3.5,2,9.6,1.7,13.6-0.6
	l120-71.3C239,279.5,239.5,276,236,274z"/>
<linearGradient id="SVGID_12_" gradientUnits="userSpaceOnUse" x1="117.0266" y1="388.418" x2="308.3583" y2="388.418" gradientTransform="matrix(0.866 0.5 1.5 -0.2887 -643.2769 291.4033)">
	<stop  offset="4.748603e-02" style="stop-color:#61DDDA"/>
	<stop  offset="0.8212" style="stop-color:#2FA0EC"/>
</linearGradient>
<path class="st14" d="M236,271.2l-90.3-50.8c-3.5-2-9.6-1.7-13.6,0.6l-120,71.3c-4,2.3-4.4,5.8-1,7.8l90.3,50.8
	c3.5,2,9.6,1.7,13.6-0.6L235,279C239,276.7,239.5,273.2,236,271.2z"/>
<polygon class="st15" points="225.5,273.9 114,338.2 29,289.3 137.9,225.4 "/>
<polygon class="st16" points="225.6,272.9 114.1,337.2 29.2,288.3 138,224.4 "/>
<linearGradient id="SVGID_13_" gradientUnits="userSpaceOnUse" x1="151.2028" y1="246.6675" x2="201.7379" y2="246.6675">
	<stop  offset="0" style="stop-color:#593289"/>
	<stop  offset="1" style="stop-color:#7F5DB5"/>
</linearGradient>
<path class="st17" d="M152.6,240.1l34.4,20c0,0,8.2,3.1,12.8-0.6c3.8-3.1,1-6,1-6l-4.1-2.9l4.7-2.7l-0.1-2.4l-28-13.6l-4.6,2.8
	c0,0-8-4.7-13.7-1.9C148.3,236.2,152.6,240.1,152.6,240.1z"/>
<path class="st3" d="M152.5,237.7l34.4,20c0,0,8.2,3.1,12.8-0.6c3.8-3.1,1-6,1-6l-4.1-2.9l4.7-2.7l-28.1-16l-4.6,2.8
	c0,0-8-4.7-13.7-1.9C148.2,233.8,152.5,237.7,152.5,237.7z"/>
<ellipse transform="matrix(0.9364 -0.3508 0.3508 0.9364 -97.0704 69.5338)" class="st0" cx="143.4" cy="302.7" rx="18" ry="13.1"/>
<line class="st18" x1="76.5" y1="271.7" x2="145.2" y2="312.1"/>
<line class="st18" x1="84.1" y1="266.1" x2="152.8" y2="306.6"/>
<line class="st18" x1="93.2" y1="261.6" x2="161.9" y2="302.1"/>
<line class="st18" x1="100.8" y1="256.1" x2="169.5" y2="296.6"/>
<line class="st18" x1="109.6" y1="251.1" x2="178.3" y2="291.6"/>
<line class="st18" x1="117.2" y1="245.5" x2="185.8" y2="286"/>
<line class="st18" x1="126.3" y1="241" x2="195" y2="281.5"/>
<line class="st18" x1="133.9" y1="235.5" x2="202.6" y2="276"/>
<linearGradient id="SVGID_14_" gradientUnits="userSpaceOnUse" x1="143.2925" y1="296.8052" x2="154.3259" y2="296.8052">
	<stop  offset="0" style="stop-color:#2F0F59"/>
	<stop  offset="0.6704" style="stop-color:#491F76"/>
</linearGradient>
<path class="st19" d="M148,293.1c0,0,4.1,4.6,4.9,5.2c0.8,0.6,1.7,1.1,1.2,1.8c-0.5,0.7-1.9,0.8-2.6,0.8c-0.7,0-7.5-3.9-7.5-3.9
	s-0.9-0.6-0.8-1c0.1-0.3,0.2-1.5,0.2-2.3c0-0.4,0.3-0.7,0.7-0.8C145.3,292.7,147.4,292.4,148,293.1z"/>
<linearGradient id="SVGID_15_" gradientUnits="userSpaceOnUse" x1="130.317" y1="304.5752" x2="135.5152" y2="304.5752">
	<stop  offset="0" style="stop-color:#2F0F59"/>
	<stop  offset="0.6704" style="stop-color:#491F76"/>
</linearGradient>
<path class="st20" d="M135.5,300.9l-0.3,7.9c0,0-0.1,1.5-1.6,1.5c-1.3,0-1.9-0.9-2.2-1.3c-0.1-0.1-0.1-0.2-0.1-0.3l-0.9-6.5
	c0,0-0.4-3.6,2.6-3.4C135.9,299,135.5,300.9,135.5,300.9z"/>
<path class="st21" d="M146.9,242.1c0.5,0,0.7,2.4,0.7,2.8c0,3.7,2.8,16.7,1.7,27.4c-1.1,10.8-1.7,20.2-2.3,21
	c-0.5,0.6-1.1,1.1-1.8,1.1c-1.7-0.1-1.4-2.9-1.4-2.9s-0.1-17.4-0.7-24.5c-0.2-2.5-0.4-4.9-0.7-7c-0.1-1-3.5-0.9-3.7,0.2
	c0,0-3.4,35.1-4,39.5c-0.1,0.6-0.3,1.1-0.3,1.1c-0.7,0.6-1.4,1-2.5,0.4c-1.2-0.7-1-3.9-1-3.9l-1.7-54.3c0-0.5,0.4-0.9,0.9-0.9
	L146.9,242.1z"/>
<linearGradient id="SVGID_16_" gradientUnits="userSpaceOnUse" x1="128.3307" y1="211.0853" x2="141.2376" y2="211.0853">
	<stop  offset="8.379889e-02" style="stop-color:#CF4EC9"/>
	<stop  offset="1" style="stop-color:#F28FE9"/>
</linearGradient>
<path class="st22" d="M129.6,216.6c-1.5-0.7-1.4-3.1-0.9-4c1.2-2,4.5-0.7,3.9-2.4c-0.5-1.7-2.9-3-0.7-4.5s2.9-2,2.9-2l6.4,3.5
	l-0.3,7.6c0,0-3.8,4.2-4.4,3.8S129.6,216.6,129.6,216.6z"/>
<linearGradient id="SVGID_17_" gradientUnits="userSpaceOnUse" x1="128.2897" y1="257.1511" x2="150.627" y2="257.1511">
	<stop  offset="0" style="stop-color:#2F0F59"/>
	<stop  offset="0.6704" style="stop-color:#491F76"/>
</linearGradient>
<path class="st23" d="M149.2,250.2c0.3-2,0.7-7.5,0.2-7.5l-19-0.6c-0.5,0-0.9,0.4-0.9,0.9c0,0-1.2,4.2-1.1,9.7c0,1.3,0.3,2,0.5,3.1
	c0,0.2,0.1,0.5,0.1,0.8c0.4,4.5,0.6,15.2,0.6,15.2c3.1,0.6,15.8,0.9,21.2-4.9C151,266.5,148.8,253.1,149.2,250.2z"/>
<path class="st21" d="M174.7,214.4l-2.4,1.1c0,0,1.6-1.8,1.2-2.2c-0.4-0.4-1,0.5-2,1.1c-1,0.5-1.1,1.8-1.8,3.1s-7.6,7-9.5,7.3
	c-1.9,0.3-3,0.5-4.8-1.9c-1.5-2-3.3,1.5-3.9,2.7c-0.1,0.2-0.6,0.6-0.5,0.9c0.7,1.4,4.3,5,7.8,4.2c4.6-1,11.8-8.9,13-10.1
	c0.1-0.1,0.2-0.2,0.4-0.2c0.9-0.2,4.3-1.2,4.7-2.5C177.4,216.6,177.1,213.3,174.7,214.4z"/>
<linearGradient id="SVGID_18_" gradientUnits="userSpaceOnUse" x1="125.7557" y1="228.6145" x2="155.6756" y2="228.6145">
	<stop  offset="6.983240e-02" style="stop-color:#A9BFFC"/>
	<stop  offset="0.433" style="stop-color:#D4DDFA"/>
	<stop  offset="0.8073" style="stop-color:#F9FAFE"/>
	<stop  offset="1" style="stop-color:#EBEFFD"/>
</linearGradient>
<path class="st24" d="M155.6,222.5l-5.7-11.3c0,0,0-0.1-0.1-0.1c-0.3-0.5-2.8-3.6-6.2-2.9c-3.6,0.7-7.9,3.3-10.7,5.1
	c-0.3,0.2-2,2-2.1,2c-0.4,0.3-3.7,5-5.1,13.7c-0.1,0.3,3.3,0.9,3.5,1.1c0.5,0.5,0.2,1.6,1.2,2.3c0.4,0.3,0.3-1.6,0.7-1.5
	c1.1,0.4-3.2,3.2-2.6,3.3c0.4,0.1,1.5-0.2,1.5,0.2l-1.4,10.7c0,0.4,0.3,2.2,4.1,3.4c1.3,0.4,3,0.9,5.6,0.7c6.6-0.7,10.6-4,11.5-6.1
	c0.3-0.7-0.1-7.9-0.2-8.6c-0.2-3.2,2.2-2.3,1.9-5.2c-0.1-1.5-0.2-1.8-0.2-1.8c0.1,0,0.5,0.1,1.1-0.2c1.6-0.8,2.5-2.4,3-4
	C155.7,223,155.7,222.7,155.6,222.5z"/>
<linearGradient id="SVGID_19_" gradientUnits="userSpaceOnUse" x1="137.856" y1="212.9649" x2="144.0221" y2="212.9649">
	<stop  offset="0" style="stop-color:#2F0F59"/>
	<stop  offset="0.6704" style="stop-color:#491F76"/>
</linearGradient>
<ellipse class="st25" cx="140.9" cy="213" rx="3.1" ry="1.7"/>
<path class="st26" d="M138.4,212.1c0,1,1.1,1.8,2.5,1.8c1.4,0,2.5-0.8,2.5-1.8c0-0.6,0-6.3,0-6.3c0.4,0.2-3.2-1.4-3.7-1.4
	c-0.2,0-0.4,0-0.5,0c-0.5,0.1-0.8,0.4-0.8,0.9V212.1z"/>
<path class="st21" d="M141.6,210.8c-0.9-0.3-1.8-0.8-2.6-1.4c-0.2-0.2-0.4-0.4-0.6-0.6v-2.3c0-0.5,0.3-0.8,0.8-0.9
	c0.1,0,0.3,0,0.5,0c0.4,0,2.2,0.8,3.2,1.2c0.3,0.1,0.5,0.5,0.5,0.8v2.4c0,0.5-0.5,1-1,0.9C142.1,211,141.9,210.9,141.6,210.8z"/>
<path class="st26" d="M145.1,199.4c0.3,0.1,0.5,0.4,0.6,0.7c0.2,1.5-0.1,6.9-1.1,7.9c-1.1,1.2-3.5,1.1-4.9,0.4
	c-1.3-0.7-2.2,0-2.6-0.7c-0.4-0.7-0.8-2.3-0.5-2.9c0.3-0.6,0.7-1.3,1.1-3c0.3-1.7,0.6-2.7,1.7-3s1-0.4,2.4-0.4
	C142.8,198.5,144.3,199.1,145.1,199.4z"/>
<linearGradient id="SVGID_20_" gradientUnits="userSpaceOnUse" x1="132.7233" y1="200.4587" x2="147.9709" y2="200.4587">
	<stop  offset="8.379889e-02" style="stop-color:#CF4EC9"/>
	<stop  offset="1" style="stop-color:#F28FE9"/>
</linearGradient>
<path class="st27" d="M133.2,202.4c-0.8-2.1-0.6-3.6,0.3-5.8c0.8-2,3-2.6,3.5-2.7c0,0,0.1,0,0.1,0l4.1-0.2c0.2,0,0.4-0.1,0.6-0.3
	c0.1-0.1,0.2-0.2,0.4-0.3c0.6-0.3,1.4-0.2,1.8,0.4c0.1-0.3,0.3-0.5,0.6-0.6c0.7-0.4,1.6-0.1,2,0.6c0.1,0.2,0.2,0.5,0.2,0.7
	c0,0.4,0.2,0.7,0.5,0.9c0.2,0.1,0.4,0.3,0.5,0.5c0.4,0.7,0.1,1.6-0.6,2c-0.3,0.1-0.6,0.2-0.9,0.2c0.2,0.6-0.1,1.4-0.7,1.7
	c-0.4,0.2-0.8,0.2-1.1,0.1c-0.2,0.4-0.4,0.8-0.8,1c-0.7,0.4-3.3-0.3-3.6-0.3c-0.6,0-1,0.5-1,1c0.1,0.6,0,1.4-0.1,1.8
	c-0.1,0.4-0.4,0.6-0.8,0.7c-0.2,0-0.4,0.1-0.6,0.2c-0.7,0.4-1,1.2-0.6,1.8c0.3,0.5,0.9,0.7,1.5,0.6c0.1,0,0.4,2.2,0,2.2
	c-0.2,0-0.3,0-0.3,0s-0.9-0.2-1.9-1.3C135.5,206.3,134.1,204.5,133.2,202.4z"/>
<path class="st28" d="M130.2,231.2l2.5-2.6l-3.2,11.9l0-4.3C129.3,235.3,130.5,231.5,130.2,231.2z"/>
<g>
	<path class="st21" d="M145.4,230.7c-5.4,1.8-11.8,2.6-13,2c-0.3-0.3-0.2-1.1-0.1-2.3c-2-0.3-4-0.7-6-1.2c-0.1,0-0.2-0.1-0.2-0.1
		c-0.5,3.1-0.6,6.6,1.3,8.1c1.2,1,4.1,1,6.2,1c4.4,0,10-2.8,12.7-3.7L145.4,230.7z"/>
</g>
<linearGradient id="SVGID_21_" gradientUnits="userSpaceOnUse" x1="146.5797" y1="230.3833" x2="154.0303" y2="230.3833">
	<stop  offset="0" style="stop-color:#593289"/>
	<stop  offset="1" style="stop-color:#7F5DB5"/>
</linearGradient>
<polygon class="st29" points="149.1,226.6 154,225.3 151.1,234.2 146.6,235.5 "/>
<linearGradient id="SVGID_22_" gradientUnits="userSpaceOnUse" x1="146.1622" y1="230.3031" x2="153.6129" y2="230.3031">
	<stop  offset="0" style="stop-color:#2F0F59"/>
	<stop  offset="0.6704" style="stop-color:#491F76"/>
</linearGradient>
<polygon class="st30" points="148.7,226.5 153.6,225.2 150.6,234.1 146.2,235.4 "/>
<path class="st21" d="M148.1,228.6c0,0-0.7,0.1-1.3,0.7c-0.8,0.8-1.5,1.4-1.5,1.4l1,3.8c0,0,0.8,0.1,1.1,0c1-0.1,2.8-0.8,3.1-0.9
	c0.5-0.3,0.9-1,0.6-1.1c0,0,0.7-0.4,0.5-0.9c0-0.1,0.3-0.7,0.2-0.9c-0.1-0.2,0.3-0.6-0.1-0.8c-0.1-0.1,0-0.4,0-0.5
	c0-0.2-0.2-0.3-0.3-0.3c-1,0.1-3.2,0.6-3.2,0.6L148.1,228.6z"/>
<polygon class="st0" points="297.8,460.5 261.2,482 180.8,434.4 217.5,413.3 "/>
<linearGradient id="SVGID_23_" gradientUnits="userSpaceOnUse" x1="440.3175" y1="274.6523" x2="454.3073" y2="260.6624" gradientTransform="matrix(0.5012 0.8653 -0.8653 0.5012 288.6339 -113.3804)">
	<stop  offset="0" style="stop-color:#2B1F56"/>
	<stop  offset="0.8184" style="stop-color:#2F229C"/>
</linearGradient>
<path class="st31" d="M284,406.4l-3.4,3.6c1.4,0.8-2.8,6.4-1.2,5.4l11-6.5c0.6-0.4,1-0.8,1.1-1.3c0.1-0.5-0.3-4.6-0.9-4.9l-11.7-3.4
	c-1.4-0.8-4-0.7-5.7,0.2l6.1,4.9C277.9,405.1,282.8,405.7,284,406.4z"/>
<path class="st32" d="M261.2,404.8l11.9,6.8c1.4,0.8,4,0.7,5.7-0.2l11-6.5c1.4-0.8,1.6-2.1,0.3-2.8l-11.9-6.8
	c-1.4-0.8-4-0.7-5.7,0.2l-11,6.5C260.2,402.9,260,404.1,261.2,404.8z"/>
<linearGradient id="SVGID_24_" gradientUnits="userSpaceOnUse" x1="250.7549" y1="412.8628" x2="286.1115" y2="412.8628">
	<stop  offset="0" style="stop-color:#2FA0EC"/>
	<stop  offset="0.8184" style="stop-color:#2F83EC"/>
</linearGradient>
<path class="st33" d="M286.1,395c0,0,0.8,7.1-5.3,10c-6.1,3-11.6,5-12.4,6.2c-1,1.5-1.4,21.9-1.4,21.9s-0.6,0.8-1.7,1.1
	c-1.2,0.3-3,0.2-3.4-0.7c-0.9-1.7-2.4-25.7-2.4-25.9s0.6-1.3,0.6-1.3s-1.4,0.9-1.4,2.1s-2.1,20.4-2.1,20.4s0.1,1-2.8,1.1
	c-1,0-2.3-0.1-2.4-1.1c-0.4-1.9-0.8-25.9,0.3-29c0.1-0.4,3.4-4.1,13.5-8.1C269.8,389.9,286.1,395,286.1,395z"/>
<linearGradient id="SVGID_25_" gradientUnits="userSpaceOnUse" x1="210.5459" y1="451.9861" x2="247.3699" y2="415.1622">
	<stop  offset="0" style="stop-color:#2F0F59"/>
	<stop  offset="0.6704" style="stop-color:#491F76"/>
</linearGradient>
<polygon class="st34" points="269.2,477.6 188.8,430.2 188.8,389.5 269.2,437 "/>
<linearGradient id="SVGID_26_" gradientUnits="userSpaceOnUse" x1="307.5122" y1="269.6417" x2="329.8391" y2="247.3149">
	<stop  offset="0" style="stop-color:#EC6C1E"/>
	<stop  offset="1" style="stop-color:#AF1D57"/>
</linearGradient>
<polygon class="st35" points="322.6,281.5 314.7,276.8 314.7,235.5 322.6,240.1 "/>
<linearGradient id="SVGID_27_" gradientUnits="userSpaceOnUse" x1="323.7672" y1="278.85" x2="346.0555" y2="256.5616">
	<stop  offset="0" style="stop-color:#593289"/>
	<stop  offset="1" style="stop-color:#7F5DB5"/>
</linearGradient>
<polygon class="st36" points="338.8,290.7 330.9,286 330.9,244.7 338.8,249.3 "/>
<linearGradient id="SVGID_28_" gradientUnits="userSpaceOnUse" x1="355.5869" y1="297.4001" x2="378.0785" y2="274.9085">
	<stop  offset="4.748603e-02" style="stop-color:#61DDDA"/>
	<stop  offset="0.8212" style="stop-color:#2FA0EC"/>
</linearGradient>
<polygon class="st37" points="370.7,309.4 362.8,304.6 362.8,263 370.7,267.5 "/>
<linearGradient id="SVGID_29_" gradientUnits="userSpaceOnUse" x1="339.9077" y1="288.298" x2="362.3228" y2="265.8829">
	<stop  offset="8.379889e-02" style="stop-color:#CF4EC9"/>
	<stop  offset="1" style="stop-color:#F28FE9"/>
</linearGradient>
<polygon class="st38" points="355,300.1 347.1,295.5 347.1,254.1 355,258.6 "/>
<linearGradient id="SVGID_30_" gradientUnits="userSpaceOnUse" x1="269.1585" y1="446.5178" x2="305.8257" y2="446.5178">
	<stop  offset="0" style="stop-color:#593289"/>
	<stop  offset="1" style="stop-color:#7F5DB5"/>
</linearGradient>
<polygon class="st39" points="269.2,477.6 305.8,456.1 305.8,415.4 269.2,437 "/>
<polygon class="st3" points="305.8,415.4 269.2,437 188.8,389.4 225.5,368.3 "/>
<linearGradient id="SVGID_31_" gradientUnits="userSpaceOnUse" x1="425.6588" y1="311.1575" x2="435.2784" y2="301.5379" gradientTransform="matrix(0.5012 0.8653 -0.8653 0.5012 288.6339 -113.3804)">
	<stop  offset="6.983240e-02" style="stop-color:#A9BFFC"/>
	<stop  offset="0.433" style="stop-color:#D4DDFA"/>
	<stop  offset="0.8073" style="stop-color:#F9FAFE"/>
	<stop  offset="1" style="stop-color:#EBEFFD"/>
</linearGradient>
<path class="st40" d="M232.6,413.3l5.5,3.2c0.7,0.4,1.8,0.3,2.6-0.1l5.1-3c0.6-0.4,0.7-0.9,0.2-1.3l-5.5-3.2
	c-0.7-0.4-1.8-0.3-2.6,0.1l-5.1,3C232.1,412.4,232.1,413,232.6,413.3z"/>
<linearGradient id="SVGID_32_" gradientUnits="userSpaceOnUse" x1="233.4136" y1="408.313" x2="242.4494" y2="410.7207">
	<stop  offset="6.983240e-02" style="stop-color:#A9BFFC"/>
	<stop  offset="0.433" style="stop-color:#D4DDFA"/>
	<stop  offset="0.8073" style="stop-color:#F9FAFE"/>
	<stop  offset="1" style="stop-color:#EBEFFD"/>
</linearGradient>
<polygon class="st41" points="236.6,402.4 232.3,412.7 239.3,416.7 243.7,406.2 "/>
<linearGradient id="SVGID_33_" gradientUnits="userSpaceOnUse" x1="420.2855" y1="292.3294" x2="442.6588" y2="269.9561" gradientTransform="matrix(0.5012 0.8653 -0.8653 0.5012 288.6339 -113.3804)">
	<stop  offset="6.983240e-02" style="stop-color:#A9BFFC"/>
	<stop  offset="0.433" style="stop-color:#D4DDFA"/>
	<stop  offset="0.8073" style="stop-color:#F9FAFE"/>
	<stop  offset="1" style="stop-color:#EBEFFD"/>
</linearGradient>
<path class="st42" d="M246.8,397.5l20.5,11.9c0.8,0.4,2.1,0.4,3-0.1l5.9-3.5c0.8-0.4,0.8-1.1,0.2-1.5l-20.5-11.9
	c-0.8-0.4-2.1-0.4-3,0.1L247,396C246.2,396.5,246.1,397.1,246.8,397.5z"/>
<path class="st32" d="M272.2,358.9c0,0-3.8,0.6-5,1.7c-1.2,1.1-7.5,13.9-7.5,13.9s0.6,1.7,2.8,3.4c1,0.8,2.5,1.1,2.5,1.1l0.3,12.6
	c0,0,10.3,6.6,12.8,7c4,0.6,7.9-2.8,7.9-2.8l0-9.4c0,0,4.5-1.5,5.3-1.8c0.8-0.3-1.5-16.1-4-18.7
	C284.9,363.4,272.2,358.9,272.2,358.9z"/>
<linearGradient id="SVGID_34_" gradientUnits="userSpaceOnUse" x1="281.1171" y1="386.659" x2="286.3714" y2="386.659">
	<stop  offset="0" style="stop-color:#2B1F56"/>
	<stop  offset="0.8184" style="stop-color:#2F229C"/>
</linearGradient>
<path class="st43" d="M283.5,386.9l-1.3,0.3l-0.5-9c-0.8,5.5-0.5,16.8-0.5,16.8l5.2-1.7v-7L283.5,386.9z"/>
<linearGradient id="SVGID_35_" gradientUnits="userSpaceOnUse" x1="264.1915" y1="352.0163" x2="279.8965" y2="352.0163">
	<stop  offset="0" style="stop-color:#EC6C1E"/>
	<stop  offset="1" style="stop-color:#AF1D57"/>
</linearGradient>
<path class="st44" d="M274.3,344.2c0,0-8,0.9-9.7,4.6c-0.8,1.7-0.9,4,2.3,4.5s5.1-2,6-1.6c0.9,0.4,1.5,3.5,2.4,3.8
	c0.9,0.4,1.1-0.8,1.5-0.3c0.4,0.5-0.7,1-0.7,1l1.5,3.7c0,0,1.2-1.4,1.6-2.7c0.4-1.2,0.8-7.4,0.5-8.4c-0.9-3.3-1.5-2-2.8-3.1
	C276.2,345,275.6,344.5,274.3,344.2z"/>
<path class="st26" d="M266,353c0,0,2.5,6.9,5.4,7.6c1.5,0.4,1.5,0.2,1.5,0.2l0,2c0,0,0.2,3.6,1.1,4c0.3,0.1,2.9-3,3.4-3.5
	c0.4-0.5,0.6-1.1,0.6-1.8c0-0.6-0.1-1.2-0.2-1.7c-0.5-2.7-1.3-3.4-1.3-3.4s1.5-0.4,1.1-2.1c-0.4-1.7-1.8-0.7-1.8-0.7
	s-1.1,0.2-1.3-0.3c-0.2-0.3-0.5-0.8-0.9-1.5c-0.2-0.3-0.7-0.5-1.5-0.2c-0.7,0.2-1.2,0.4-2.4,0.8C269,352.7,267.6,353.5,266,353z"/>
<path class="st21" d="M276.1,359.6c-0.9,0.4-1.8,0.8-2.8,1.1c0,0,0,0-0.1,0c-0.2,0.1-0.4,0.1-0.6,0.2c0.1,0,0.1,0,0.1,0l0,1.6
	c0.7-0.2,1.3-0.5,1.9-0.9c0.5-0.3,0.9-0.7,1.3-1.2C276.3,360,276.4,359.5,276.1,359.6z"/>
<path class="st26" d="M260.1,375.1c0,0,1.2,1.9,2.3,2.7c0.7,0.5,2.7,1.3,2.7,1.3s-3.7,12.9-4.2,14.2c-0.5,1.3-3.7-0.7-3.7-0.7
	s0.9-8.7,1.8-12.8C259.8,375.7,260.1,375.1,260.1,375.1z"/>
<linearGradient id="SVGID_36_" gradientUnits="userSpaceOnUse" x1="222.4848" y1="392.1599" x2="261.4741" y2="392.1599">
	<stop  offset="0" style="stop-color:#593289"/>
	<stop  offset="1" style="stop-color:#7F5DB5"/>
</linearGradient>
<path class="st45" d="M260,416.5l-34.6-19.5c-1-0.6-1.7-2-1.7-3.3l-1.2-24.6c0-0.8,1.8-1.8,2.6-1.4l34.6,19.5c1,0.6,1.7,2,1.7,3.3
	v24.9C261.5,416.5,260.8,417,260,416.5z"/>
<linearGradient id="SVGID_37_" gradientUnits="userSpaceOnUse" x1="222.3864" y1="392.8339" x2="260.1876" y2="392.8339">
	<stop  offset="6.983240e-02" style="stop-color:#A9BFFC"/>
	<stop  offset="0.433" style="stop-color:#D4DDFA"/>
	<stop  offset="0.8073" style="stop-color:#F9FAFE"/>
	<stop  offset="1" style="stop-color:#EBEFFD"/>
</linearGradient>
<path class="st46" d="M258.7,417.2l-34.6-19.5c-1-0.6-1.7-2-1.7-3.3v-24.9c0-1.1,0.7-1.6,1.5-1.1l34.6,19.5c1,0.6,1.7,2,1.7,3.3
	v24.9C260.2,417.2,259.5,417.7,258.7,417.2z"/>
<linearGradient id="SVGID_38_" gradientUnits="userSpaceOnUse" x1="236.2294" y1="391.6685" x2="242.3586" y2="391.6685">
	<stop  offset="4.748603e-02" style="stop-color:#61DDDA"/>
	<stop  offset="0.8212" style="stop-color:#2FA0EC"/>
</linearGradient>
<path class="st47" d="M242.4,393.4c0,1.9-1.4,2.7-3.1,1.7c-1.7-1-3.1-3.3-3.1-5.3s1.4-2.7,3.1-1.7
	C241,389.1,242.4,391.5,242.4,393.4z"/>
<path class="st26" d="M283.5,386.9l0,3c0,0-5.4,4.7-11.9,8c-0.2,0.1-0.6,0.1-1,0.2c-0.3,0-1.1,0-1.3,0c-0.3,0-1.2-0.1-1.5,0
	c-0.4,0.1-1.8,0.5-1.8,0.5c-0.4,0.3-0.3,0.6,0,0.7c0.1,0,0.2,0.1,0.3,0.1c-0.1,0.2-0.7,0.4-0.9,0.5c-1.8,0.8-3.7,1.4-3.4,2.4
	c0,0.2,0.2,0.3,0.4,0.4c0.2,0.2,0.1,0.5,0.5,0.6c0.3,0.1,0.6,0.2,0.9,0.3c0.2,0,0.4,0.2,0.5,0.3c0.4,0.2,0.7-0.2,1.1,0.2
	c1,1,4.8-0.9,6.2-1.8c0.3-0.2,1.3-1,1.3-1s3.5-0.5,8-2.7c5-2.5,6.5-4.1,7.6-4.7c1.1-0.6,1.1-8.4,1.1-8.4
	C288.1,385.8,283.5,386.9,283.5,386.9z"/>
<g>
	<linearGradient id="SVGID_39_" gradientUnits="userSpaceOnUse" x1="361.0052" y1="106.5319" x2="378.0134" y2="106.5319">
		<stop  offset="0" style="stop-color:#2FA0EC"/>
		<stop  offset="0.8184" style="stop-color:#2F83EC"/>
	</linearGradient>
	<path class="st48" d="M376.2,119.6c-0.3,0-0.7-0.1-1-0.3l-12.6-7.1c-1-0.5-1.6-1.8-1.6-3V95.6c0-0.8,0.3-1.5,0.9-1.8
		c0.6-0.3,1.3-0.3,1.9,0l12.6,7.1c1,0.6,1.6,1.8,1.6,3v13.7c0,0.8-0.3,1.5-0.9,1.8C376.8,119.5,376.5,119.6,376.2,119.6z M376.5,117
		L376.5,117L376.5,117z M363.7,96.8v12.4c0,0.2,0.2,0.6,0.3,0.7l11.3,6.4v-12.4c0-0.2-0.2-0.6-0.3-0.7L363.7,96.8z M362.5,96.1
		C362.5,96.1,362.5,96.1,362.5,96.1L362.5,96.1z"/>
</g>
<g>
	<linearGradient id="SVGID_40_" gradientUnits="userSpaceOnUse" x1="361.0052" y1="132.024" x2="378.0134" y2="132.024">
		<stop  offset="0" style="stop-color:#2FA0EC"/>
		<stop  offset="0.8184" style="stop-color:#2F83EC"/>
	</linearGradient>
	<path class="st49" d="M376.2,145c-0.3,0-0.7-0.1-1-0.3l-12.6-7.1c-1-0.5-1.6-1.8-1.6-3V121c0-0.8,0.3-1.5,0.9-1.8
		c0.6-0.3,1.3-0.3,1.9,0l12.6,7.1c1,0.6,1.6,1.8,1.6,3V143c0,0.8-0.3,1.5-0.9,1.8C376.8,145,376.5,145,376.2,145z M376.5,142.5
		L376.5,142.5L376.5,142.5z M363.7,122.3v12.4c0,0.2,0.2,0.6,0.3,0.7l11.3,6.4v-12.4c0-0.2-0.2-0.6-0.3-0.7L363.7,122.3z
		 M362.5,121.6C362.5,121.6,362.5,121.6,362.5,121.6L362.5,121.6z"/>
</g>
<g>
	<linearGradient id="SVGID_41_" gradientUnits="userSpaceOnUse" x1="361.0052" y1="157.516" x2="378.0134" y2="157.516">
		<stop  offset="0" style="stop-color:#2FA0EC"/>
		<stop  offset="0.8184" style="stop-color:#2F83EC"/>
	</linearGradient>
	<path class="st50" d="M376.2,170.5c-0.3,0-0.7-0.1-1-0.3l-12.6-7.1c-1-0.5-1.6-1.8-1.6-3v-13.7c0-0.8,0.3-1.5,0.9-1.8
		c0.6-0.3,1.3-0.3,1.9,0l12.6,7.1c1,0.6,1.6,1.8,1.6,3v13.7c0,0.8-0.3,1.5-0.9,1.8C376.8,170.5,376.5,170.5,376.2,170.5z
		 M376.5,167.9L376.5,167.9L376.5,167.9z M363.7,147.8v12.4c0,0.2,0.2,0.6,0.3,0.7l11.3,6.4v-12.4c0-0.2-0.2-0.6-0.3-0.7
		L363.7,147.8z M362.5,147.1C362.5,147.1,362.5,147.1,362.5,147.1L362.5,147.1z"/>
</g>
<linearGradient id="SVGID_42_" gradientUnits="userSpaceOnUse" x1="305.1472" y1="53.2571" x2="378.4719" y2="53.2571">
	<stop  offset="4.748603e-02" style="stop-color:#61DDDA"/>
	<stop  offset="0.8212" style="stop-color:#2FA0EC"/>
</linearGradient>
<line class="st51" x1="306.4" y1="32.9" x2="377.3" y2="73.6"/>
<linearGradient id="SVGID_43_" gradientUnits="userSpaceOnUse" x1="305.1472" y1="58.6239" x2="378.4719" y2="58.6239">
	<stop  offset="4.748603e-02" style="stop-color:#61DDDA"/>
	<stop  offset="0.8212" style="stop-color:#2FA0EC"/>
</linearGradient>
<line class="st52" x1="306.4" y1="38.3" x2="377.3" y2="79"/>
<linearGradient id="SVGID_44_" gradientUnits="userSpaceOnUse" x1="305.1472" y1="65.3323" x2="378.4719" y2="65.3323">
	<stop  offset="4.748603e-02" style="stop-color:#61DDDA"/>
	<stop  offset="0.8212" style="stop-color:#2FA0EC"/>
</linearGradient>
<line class="st53" x1="306.4" y1="45" x2="377.3" y2="85.7"/>
<linearGradient id="SVGID_45_" gradientUnits="userSpaceOnUse" x1="305.1472" y1="63.3082" x2="348.0095" y2="63.3082">
	<stop  offset="4.748603e-02" style="stop-color:#61DDDA"/>
	<stop  offset="0.8212" style="stop-color:#2FA0EC"/>
</linearGradient>
<line class="st54" x1="306.4" y1="51.7" x2="346.8" y2="74.9"/>
<linearGradient id="SVGID_46_" gradientUnits="userSpaceOnUse" x1="305.0477" y1="158.5307" x2="378.3723" y2="158.5307">
	<stop  offset="4.748603e-02" style="stop-color:#61DDDA"/>
	<stop  offset="0.8212" style="stop-color:#2FA0EC"/>
</linearGradient>
<line class="st55" x1="306.3" y1="138.2" x2="377.2" y2="178.9"/>
<linearGradient id="SVGID_47_" gradientUnits="userSpaceOnUse" x1="305.0477" y1="163.8974" x2="378.3723" y2="163.8974">
	<stop  offset="4.748603e-02" style="stop-color:#61DDDA"/>
	<stop  offset="0.8212" style="stop-color:#2FA0EC"/>
</linearGradient>
<line class="st56" x1="306.3" y1="143.6" x2="377.2" y2="184.2"/>
<linearGradient id="SVGID_48_" gradientUnits="userSpaceOnUse" x1="305.0477" y1="170.6059" x2="378.3723" y2="170.6059">
	<stop  offset="4.748603e-02" style="stop-color:#61DDDA"/>
	<stop  offset="0.8212" style="stop-color:#2FA0EC"/>
</linearGradient>
<line class="st57" x1="306.3" y1="150.3" x2="377.2" y2="190.9"/>
<linearGradient id="SVGID_49_" gradientUnits="userSpaceOnUse" x1="305.0477" y1="177.3143" x2="378.3723" y2="177.3143">
	<stop  offset="4.748603e-02" style="stop-color:#61DDDA"/>
	<stop  offset="0.8212" style="stop-color:#2FA0EC"/>
</linearGradient>
<line class="st58" x1="306.3" y1="157" x2="377.2" y2="197.6"/>
<linearGradient id="SVGID_50_" gradientUnits="userSpaceOnUse" x1="364.3899" y1="155.9937" x2="382.1459" y2="155.9937">
	<stop  offset="0" style="stop-color:#EC6C1E"/>
	<stop  offset="1" style="stop-color:#AF1D57"/>
</linearGradient>
<polyline class="st59" points="365.7,156.2 369.5,161.1 380.8,150.3 "/>
<linearGradient id="SVGID_51_" gradientUnits="userSpaceOnUse" x1="98.3175" y1="422.6199" x2="118.726" y2="422.6199">
	<stop  offset="0" style="stop-color:#2B1F56"/>
	<stop  offset="0.8184" style="stop-color:#2F229C"/>
</linearGradient>
<path class="st60" d="M114.3,418c0-5-11.1,1.5-11.1,1.5s-2.2-0.4-4.9-0.8c0,0.1,0,0.1,0,0.3c0,0,0.1,0.7,0.1,0.5
	c0.1,0.5,0.4,1.6,0.6,2.3c0,0.1,0.1,0.2,0.1,0.4c0,0.1,0.1,0.4,0.1,0.4c0.1,0.2,0.1,0.3,0.2,0.5c0,0,0.2,0.5,0.2,0.4
	c0.3,0.7,0.5,1.1,1,1.7c0.9,1.2,2.2,2,3.7,2.3c0.5,0.1,0.9,0.8,1.2,1.6c1.9-1.1,3.3-2,3.3-2s7.4-3.8,9.9-6.3
	C118.7,420.5,114.3,418.3,114.3,418z"/>
<path class="st32" d="M117.5,430.2c1.6-2.4,0.4-6.3-0.9-6.3c-2.5,0-16,1.8-16,1.8s-15.6-2.5-16-2.6c-0.4-0.1-4.9-2.9-4.9,0.7
	c0,0.3-0.1-2.4,0,5.9c0.1,6.3,12,10.2,15.5,9.4C97.6,438.6,115.1,432.6,117.5,430.2z"/>
<linearGradient id="SVGID_52_" gradientUnits="userSpaceOnUse" x1="105.8621" y1="409.1619" x2="129.2269" y2="409.1619">
	<stop  offset="0" style="stop-color:#2F0F59"/>
	<stop  offset="0.6704" style="stop-color:#491F76"/>
</linearGradient>
<path class="st61" d="M111.3,397.2l17.1,9.5c0.4,0.2,1,0.7,0.8,1.4l-5,12.7c-0.3,0.3-0.3,0.3-0.7,0.1l-16.8-10.3
	c-0.4-0.2-0.8-0.8-0.8-1.4l4.4-11.2C110.5,397.5,110.9,397,111.3,397.2z"/>
<linearGradient id="SVGID_53_" gradientUnits="userSpaceOnUse" x1="105.9814" y1="409.2376" x2="128.5447" y2="409.2376">
	<stop  offset="4.748603e-02" style="stop-color:#61DDDA"/>
	<stop  offset="0.8212" style="stop-color:#2FA0EC"/>
</linearGradient>
<path class="st62" d="M111.3,397.7l16.5,9.2c0.4,0.2,0.9,0.6,0.7,1.3l-4.8,12.3c-0.3,0.3-0.3,0.3-0.7,0.1l-16.2-9.9
	c-0.4-0.2-0.7-0.8-0.7-1.3l4.2-10.8C110.4,398,110.9,397.5,111.3,397.7z"/>
<linearGradient id="SVGID_54_" gradientUnits="userSpaceOnUse" x1="94.2112" y1="419.1238" x2="123.752" y2="419.1238">
	<stop  offset="0" style="stop-color:#2F0F59"/>
	<stop  offset="0.6704" style="stop-color:#491F76"/>
</linearGradient>
<path class="st63" d="M123.3,420.3l-16.8-9.6c-0.4-0.2-1.1-0.2-1.6,0.1l-10.8,6c0,0,0,0.4,0,0.6c0,0.2,0.1,0.3,0.3,0.4l17.4,9.8
	c0.4,0.2,1.1,0.2,1.6-0.1l10.2-6c0,0,0.1-0.1,0.1-0.1c0,0,0-0.8,0-0.8C123.7,420.4,123.4,420.3,123.3,420.3z"/>
<linearGradient id="SVGID_55_" gradientUnits="userSpaceOnUse" x1="394.2173" y1="265.9598" x2="421.7359" y2="265.9598" gradientTransform="matrix(0.866 0.5 1.5 -0.2887 -643.2769 291.4033)">
	<stop  offset="6.983240e-02" style="stop-color:#A9BFFC"/>
	<stop  offset="0.433" style="stop-color:#D4DDFA"/>
	<stop  offset="0.8073" style="stop-color:#F9FAFE"/>
	<stop  offset="1" style="stop-color:#EBEFFD"/>
</linearGradient>
<path class="st64" d="M123.5,420.1l-17.4-9.8c-0.4-0.2-1.1-0.2-1.6,0.1l-9.9,5.8c-0.5,0.3-0.5,0.7-0.1,0.9l17.4,9.8
	c0.4,0.2,1.1,0.2,1.6-0.1l9.9-5.8C123.8,420.8,123.9,420.4,123.5,420.1z"/>
<linearGradient id="SVGID_56_" gradientUnits="userSpaceOnUse" x1="92.6393" y1="388.8929" x2="106.6068" y2="388.8929">
	<stop  offset="0.234" style="stop-color:#8D0B18"/>
	<stop  offset="0.904" style="stop-color:#6C0E00"/>
</linearGradient>
<path class="st65" d="M106.6,383.5c0,0-2.4,7.3-3.9,8s-3.4,0.7-3.4,0.7l-2.3,5.5l-4.4-1.8l0.2-2.4l3.7-8.7l3.7-5L106.6,383.5z"/>
<linearGradient id="SVGID_57_" gradientUnits="userSpaceOnUse" x1="99.8864" y1="556.9492" x2="114.3839" y2="556.9492" gradientTransform="matrix(0.9472 0.3207 -0.3207 0.9472 176.8309 -178.8044)">
	<stop  offset="0" style="stop-color:#2F0F59"/>
	<stop  offset="0.6704" style="stop-color:#491F76"/>
</linearGradient>
<path class="st66" d="M104.7,384.2c0,0,1.6,0.4,2.9-1.9c1.2-2.2-0.7-3.3-0.7-3.3s-3.1-3.6-6.9-4.7c-1.3-0.4-3.9,0.7-4.9,1.9
	c-1.1,1.1-2.4,3.9-2.2,7c0.1,3-0.1,6.8,2.3,7.1c2.4,0.3,6-1.6,7-3.7C103,384.6,103.9,382.8,104.7,384.2z"/>
<linearGradient id="SVGID_58_" gradientUnits="userSpaceOnUse" x1="81.4007" y1="401.3112" x2="91.6047" y2="401.3112">
	<stop  offset="6.983240e-02" style="stop-color:#A9BFFC"/>
	<stop  offset="0.433" style="stop-color:#D4DDFA"/>
	<stop  offset="0.8073" style="stop-color:#F9FAFE"/>
	<stop  offset="1" style="stop-color:#EBEFFD"/>
</linearGradient>
<path class="st67" d="M91.6,391.1L89,406.6c0,0-5.2,5.2-5.4,5c-0.5-0.8-1.4-5-1.9-7.3C79.7,395.4,87.4,390.9,91.6,391.1z"/>
<linearGradient id="SVGID_59_" gradientUnits="userSpaceOnUse" x1="176.712" y1="410.9045" x2="202.8098" y2="410.9045" gradientTransform="matrix(-1 0 0 1 281.941 0)">
	<stop  offset="0" style="stop-color:#EC6C1E"/>
	<stop  offset="1" style="stop-color:#AF1D57"/>
</linearGradient>
<path class="st68" d="M99.6,392.8c0,0,4.4,3.2,5.5,4.7c1,1.3-4.5,15.6-3.8,25.6c0.1,1.4,1.4,4-2,6.1c-3.3,2.1-4.2,1.6-7.3,1.5
	c-3.6-0.2-11.9-4.6-12.6-7.6c-0.6-3-0.1-9.9-0.1-9.9s0.8-9,4.6-15.8c1.3-2.3,4.3-5.3,7.3-6.2C91.8,391,96.4,390.8,99.6,392.8z"/>
<linearGradient id="SVGID_60_" gradientUnits="userSpaceOnUse" x1="99.945" y1="413.8509" x2="118.8961" y2="413.8509">
	<stop  offset="0.234" style="stop-color:#8D0B18"/>
	<stop  offset="0.904" style="stop-color:#6C0E00"/>
</linearGradient>
<path class="st69" d="M99.9,409.4l3.6,11.3c0,0,0.8,2,2.7,1.9c1.4-0.1,5.6-0.2,7.4-0.7c0.2-0.1,0.6,0.2,1.5-0.4
	c0.3-0.2,1-0.8,1.4-0.9c0.8-0.3,2.7-0.3,2.4-0.9c-0.5-0.7-1.8-1.4-2.8-1.8c-0.9-0.3-2-0.2-2.2,0c-0.2,0.2-0.4,0.2-0.4,0.2
	c-0.1,0.2-0.1,0.2-0.6,0.1c-0.4,0-0.7,0.9-0.8,1.2c-0.1,0.2-4.3-1.3-4.3-1.3s-0.4-3.1-0.5-4.2c-0.3-2.2-1.5-8.9-1.5-8.9L99.9,409.4z
	"/>
<linearGradient id="SVGID_61_" gradientUnits="userSpaceOnUse" x1="97.2029" y1="405.7325" x2="107.4951" y2="405.7325">
	<stop  offset="6.983240e-02" style="stop-color:#A9BFFC"/>
	<stop  offset="0.433" style="stop-color:#D4DDFA"/>
	<stop  offset="0.8073" style="stop-color:#F9FAFE"/>
	<stop  offset="1" style="stop-color:#EBEFFD"/>
</linearGradient>
<path class="st70" d="M104.7,396.1c3.2,3.9,2.8,16.4,2.8,16.4s-7.1,3.7-7.1,3.6c-0.3-0.9-3.4-8.1-3.1-10.5
	C97.8,401.1,102,392.8,104.7,396.1z"/>
<path class="st32" d="M92.8,390.5l-0.8,0.9c0,0,1.8,0,3.6,0.4c2.2,0.5,4.4,1.9,4.4,1.9l-0.2-1.5C99.7,392.2,97,389.8,92.8,390.5z"/>
<ellipse transform="matrix(0.9364 -0.3508 0.3508 0.9364 -113.7158 174.6514)" class="st0" cx="425.2" cy="401.2" rx="17.9" ry="13.1"/>
<linearGradient id="SVGID_62_" gradientUnits="userSpaceOnUse" x1="-667.0215" y1="400.1314" x2="-661.7419" y2="400.1314" gradientTransform="matrix(1 0 0 1 1097.85 0)">
	<stop  offset="0" style="stop-color:#2F0F59"/>
	<stop  offset="0.6704" style="stop-color:#491F76"/>
</linearGradient>
<path class="st71" d="M432.4,394.9l-1.5,8.3c0,0,0.3,2.3,2.6,2.1c2.3-0.2,2.7-2.5,2.7-2.5l-0.1-7.9H432.4z"/>
<linearGradient id="SVGID_63_" gradientUnits="userSpaceOnUse" x1="-686.38" y1="403.9965" x2="-675.1407" y2="403.9965" gradientTransform="matrix(1 0 0 1 1097.85 0)">
	<stop  offset="0" style="stop-color:#2F0F59"/>
	<stop  offset="0.6704" style="stop-color:#491F76"/>
</linearGradient>
<path class="st72" d="M412.1,400.3c0,0-1.4,1.4,0,2.5c1.4,1.1,6.6,5.1,6.6,5.1c-0.1,0,2.5,0.9,3.7-0.5c0.8-0.9,0-3.2,0-3.2l-8.3-4.3
	C414.1,399.9,412.6,399.4,412.1,400.3z"/>
<linearGradient id="SVGID_64_" gradientUnits="userSpaceOnUse" x1="-680.2205" y1="402.8145" x2="-676.3063" y2="402.8145" gradientTransform="matrix(1 0 0 1 1097.85 0)">
	<stop  offset="6.983240e-02" style="stop-color:#A9BFFC"/>
	<stop  offset="0.433" style="stop-color:#D4DDFA"/>
	<stop  offset="0.8073" style="stop-color:#F9FAFE"/>
	<stop  offset="1" style="stop-color:#EBEFFD"/>
</linearGradient>
<path class="st73" d="M417.6,400.3v4.6c0,0,0.3,1,1.8,0.9c1.5-0.1,2.1-0.8,2.1-0.8v-5.1L417.6,400.3z"/>
<linearGradient id="SVGID_65_" gradientUnits="userSpaceOnUse" x1="-666.3843" y1="398.7182" x2="-662.4702" y2="398.7182" gradientTransform="matrix(1 0 0 1 1097.85 0)">
	<stop  offset="6.983240e-02" style="stop-color:#A9BFFC"/>
	<stop  offset="0.433" style="stop-color:#D4DDFA"/>
	<stop  offset="0.8073" style="stop-color:#F9FAFE"/>
	<stop  offset="1" style="stop-color:#EBEFFD"/>
</linearGradient>
<path class="st74" d="M431.5,396.2v4.6c0,0,0.3,1,1.8,0.9c1.5-0.1,2.1-0.8,2.1-0.8v-5.1L431.5,396.2z"/>
<path class="st32" d="M416.3,350.7l0.1,6.2l0.8,44.7c0,0,1.7,1.2,2.9,1.1c1.2-0.1,2.2-1.2,2.2-1.2l4.5-38.2l4.4,35.6
	c0,0,0.5,0.5,2.4,0.4c1.8-0.2,2.5-1.4,2.5-1.4s1.6-44.5,1.6-50.1c0-1.1-4.2-1.5-4.6-1.4S416.3,350.7,416.3,350.7z"/>
<path class="st75" d="M420.9,299.8c0,0-0.6,7.6,0.5,8.9s2.8,2,2.8,2v6h4.7l0.7-2.3V305l-1.5-6L420.9,299.8z"/>
<path class="st75" d="M441.7,293.5c0.7-0.5,3.1,0.7,3.1,0.7s1.3,0.3,0.5,2.3c-0.8,2-1.4,2.5-1.4,2.5l-3.1,14.4l-3.5,7.8l-4.7-4.7
	l3.5-4.6l4.2-11.3c0,0-1.5-6.2-1.3-6.3c0.8-0.7,1.1,1.2,1.3,2.1S441,293.9,441.7,293.5z"/>
<linearGradient id="SVGID_66_" gradientUnits="userSpaceOnUse" x1="-678.3325" y1="303.6301" x2="-664.0019" y2="303.6301" gradientTransform="matrix(1 0 0 1 1097.85 0)">
	<stop  offset="0" style="stop-color:#2F0F59"/>
	<stop  offset="0.6704" style="stop-color:#491F76"/>
</linearGradient>
<path class="st76" d="M421.5,302.5c0,0-1.6-0.3-1.9-2.8c-0.3-2.5,1.9-2.7,1.9-2.7s4.3-2.1,8.2-1.6c1.4,0.2,3.3,2.2,3.8,3.6
	c0.5,1.5,0.6,4.6-0.6,7.3c-1.3,2.7-2.5,6.3-4.9,5.6c-2.4-0.6-4.9-3.8-5-6.1C422.8,303.5,422.7,301.6,421.5,302.5z"/>
<linearGradient id="SVGID_67_" gradientUnits="userSpaceOnUse" x1="-665.9045" y1="320.6992" x2="-658.2337" y2="320.6992" gradientTransform="matrix(1 0 0 1 1097.85 0)">
	<stop  offset="0" style="stop-color:#2F0F59"/>
	<stop  offset="0.6704" style="stop-color:#491F76"/>
</linearGradient>
<polygon class="st77" points="436,313 431.9,315 436.4,328.4 439.6,316.5 "/>
<linearGradient id="SVGID_68_" gradientUnits="userSpaceOnUse" x1="-682.7305" y1="334.731" x2="-659.8387" y2="334.731" gradientTransform="matrix(1 0 0 1 1097.85 0)">
	<stop  offset="0" style="stop-color:#2F0F59"/>
	<stop  offset="0.6704" style="stop-color:#491F76"/>
</linearGradient>
<path class="st78" d="M422.6,316c0,0-5.5,3.1-6.6,4.3c-1.1,1.2-0.9,27.4-0.9,27.4s-0.3,6.3,3.3,8c3.7,1.7,5.9,0.7,10.5-0.7
	c6.8-2.1,8-3.8,8.7-6.7c0.6-3,0.3-9.9,0.3-9.9l-0.2-7.6l-0.3-8.3c0,0-0.7-8.5-1.8-9.1c-1-0.7-2.2,0.5-4.8,1.2
	C430.2,314.6,425.3,314.4,422.6,316z"/>
<path class="st75" d="M402.9,357.8c0.1,0.8,2.6,1.8,2.6,1.8s1.1,0.7,2-1.2s0.8-2.7,0.8-2.7l9-13.3l1.4-5.9l-5.2-1.9l-1.1,6.3
	l-5.3,10.9c0,0-5.5,3.2-5.5,3.4c0.1,1.1,1.6-0.1,2.4-0.5C404.8,354.4,402.8,357,402.9,357.8z"/>
<linearGradient id="SVGID_69_" gradientUnits="userSpaceOnUse" x1="412.7994" y1="328.0898" x2="420.7495" y2="328.0898">
	<stop  offset="0" style="stop-color:#2F0F59"/>
	<stop  offset="0.6704" style="stop-color:#491F76"/>
</linearGradient>
<path class="st79" d="M417.1,319.4c0,0-2,0.9-3.3,5.5c-1.1,4.1-1,9.3-1,9.3s4.3,2.6,6.2,2.6C420.1,336.8,423.1,320.1,417.1,319.4z"
	/>
<linearGradient id="SVGID_70_" gradientUnits="userSpaceOnUse" x1="64.2102" y1="211.691" x2="117.7627" y2="211.691">
	<stop  offset="0" style="stop-color:#2FA0EC"/>
	<stop  offset="0.8184" style="stop-color:#2F83EC"/>
</linearGradient>
<path class="st80" d="M70.6,243.1l3.5-5.3l39.2-22.5c2.5-1.4,4.5-5.4,4.5-8.7v-23c0-2.8-1.7-4.1-3.8-2.9l-45.2,25.9
	c-2.5,1.4-4.5,5.4-4.5,8.7v23c0,1.3,0.4,2.3,1,2.9C65.9,241.8,69.9,243.5,70.6,243.1z"/>
<path class="st81" d="M74.7,231.7l-0.6,6.1l39.2-22.5c2.5-1.4,4.5-5.4,4.5-8.7L120,182l-3.5-1.4c-0.7-0.4-1.6-0.4-2.6,0.2
	l-45.6,26.2l4,2l3.9,18.2C76.2,229.9,72.6,232.9,74.7,231.7z"/>
<linearGradient id="SVGID_71_" gradientUnits="userSpaceOnUse" x1="70.2563" y1="212.2873" x2="120.4084" y2="212.2873">
	<stop  offset="0" style="stop-color:#2FA0EC"/>
	<stop  offset="0.8184" style="stop-color:#2F83EC"/>
</linearGradient>
<path class="st82" d="M74.3,235.6l-0.2,5.5l33.8-19.4l1.3,0.7c0.4,0.2,1,0.3,1.7,0.5c0.8,0.2,8,1.8,8.4,1.6c1.1-0.6,1.2-0.5,1.2-0.5
	l-2.7-37.1c0-2.8-1.7-4.1-3.8-2.9l-43,28.4c-2.5,1.4,3,2.9,3,6.2l5.2,9C79.1,230.4,72.2,236.8,74.3,235.6z"/>
<linearGradient id="SVGID_72_" gradientUnits="userSpaceOnUse" x1="67.7194" y1="212.399" x2="121.299" y2="212.399">
	<stop  offset="4.748603e-02" style="stop-color:#61DDDA"/>
	<stop  offset="0.8212" style="stop-color:#2FA0EC"/>
</linearGradient>
<path class="st83" d="M71.6,242.7l6-3.4l33.8-19.4l5.8,4.1c1.7,0.9,2.5,0.5,3.2,0.1c1.1-0.6,0.9-4.1,0.9-6.6V185
	c0-2.8-1.7-4.1-3.8-2.9l-45.2,25.9c-2.5,1.4-4.5,5.4-4.5,8.7v23C67.7,242.6,69.4,243.9,71.6,242.7z"/>
<linearGradient id="SVGID_73_" gradientUnits="userSpaceOnUse" x1="72.8287" y1="202.8762" x2="116.1898" y2="202.8762">
	<stop  offset="0" style="stop-color:#2FA0EC"/>
	<stop  offset="0.8184" style="stop-color:#2F83EC"/>
</linearGradient>
<line class="st84" x1="74.2" y1="214.3" x2="114.8" y2="191.4"/>
<linearGradient id="SVGID_74_" gradientUnits="userSpaceOnUse" x1="73.6518" y1="208.4464" x2="117.0129" y2="208.4464">
	<stop  offset="0" style="stop-color:#2FA0EC"/>
	<stop  offset="0.8184" style="stop-color:#2F83EC"/>
</linearGradient>
<line class="st85" x1="75" y1="219.9" x2="115.7" y2="197"/>
<linearGradient id="SVGID_75_" gradientUnits="userSpaceOnUse" x1="73.6518" y1="214.4008" x2="117.0129" y2="214.4008">
	<stop  offset="0" style="stop-color:#2FA0EC"/>
	<stop  offset="0.8184" style="stop-color:#2F83EC"/>
</linearGradient>
<line class="st86" x1="75" y1="225.9" x2="115.7" y2="202.9"/>
<linearGradient id="SVGID_76_" gradientUnits="userSpaceOnUse" x1="26.8998" y1="378.2365" x2="80.4522" y2="378.2365">
	<stop  offset="0" style="stop-color:#2FA0EC"/>
	<stop  offset="0.8184" style="stop-color:#2F83EC"/>
</linearGradient>
<path class="st87" d="M33.3,409.6l3.5-5.3l39.2-22.5c2.5-1.4,4.5-5.4,4.5-8.7v-23c0-2.8-1.7-4.1-3.8-2.9l-45.2,25.9
	c-2.5,1.4-4.5,5.4-4.5,8.7v23c0,1.3,0.4,2.3,1,2.9C28.6,408.4,32.6,410,33.3,409.6z"/>
<path class="st81" d="M37.3,398.3l-0.6,6.1l39.2-22.5c2.5-1.4,4.5-5.4,4.5-8.7l2.3-24.6l-3.5-1.4c-0.7-0.4-1.6-0.4-2.6,0.2
	l-45.6,26.2l4,2l3.9,18.2C38.9,396.4,35.2,399.5,37.3,398.3z"/>
<linearGradient id="SVGID_77_" gradientUnits="userSpaceOnUse" x1="32.9459" y1="378.8328" x2="83.098" y2="378.8328">
	<stop  offset="0" style="stop-color:#2FA0EC"/>
	<stop  offset="0.8184" style="stop-color:#2F83EC"/>
</linearGradient>
<path class="st88" d="M37,402.1l-0.2,5.5l33.8-19.4l1.3,0.7c0.4,0.2,1,0.3,1.7,0.5c0.8,0.2,8,1.8,8.4,1.6c1.1-0.6,1.2-0.5,1.2-0.5
	l-2.7-37.1c0-2.8-1.7-4.1-3.8-2.9l-43,28.4c-2.5,1.4,3,2.9,3,6.2l5.2,9C41.8,396.9,34.9,403.3,37,402.1z"/>
<linearGradient id="SVGID_78_" gradientUnits="userSpaceOnUse" x1="30.409" y1="378.9445" x2="83.9886" y2="378.9445">
	<stop  offset="4.748603e-02" style="stop-color:#61DDDA"/>
	<stop  offset="0.8212" style="stop-color:#2FA0EC"/>
</linearGradient>
<path class="st89" d="M34.2,409.2l6-3.4l33.8-19.4l5.8,4.1c1.7,0.9,2.5,0.5,3.2,0.1c1.1-0.6,0.9-4.1,0.9-6.6v-32.4
	c0-2.8-1.7-4.1-3.8-2.9L35,374.6c-2.5,1.4-4.5,5.4-4.5,8.7v23C30.4,409.1,32.1,410.4,34.2,409.2z"/>
<linearGradient id="SVGID_79_" gradientUnits="userSpaceOnUse" x1="35.5182" y1="369.4216" x2="78.8793" y2="369.4216">
	<stop  offset="0" style="stop-color:#2FA0EC"/>
	<stop  offset="0.8184" style="stop-color:#2F83EC"/>
</linearGradient>
<line class="st90" x1="36.9" y1="380.9" x2="77.5" y2="358"/>
<linearGradient id="SVGID_80_" gradientUnits="userSpaceOnUse" x1="36.3414" y1="374.9918" x2="79.7025" y2="374.9918">
	<stop  offset="0" style="stop-color:#2FA0EC"/>
	<stop  offset="0.8184" style="stop-color:#2F83EC"/>
</linearGradient>
<line class="st91" x1="37.7" y1="386.4" x2="78.4" y2="363.5"/>
<linearGradient id="SVGID_81_" gradientUnits="userSpaceOnUse" x1="36.3414" y1="380.9463" x2="79.7025" y2="380.9463">
	<stop  offset="0" style="stop-color:#2FA0EC"/>
	<stop  offset="0.8184" style="stop-color:#2F83EC"/>
</linearGradient>
<line class="st92" x1="37.7" y1="392.4" x2="78.4" y2="369.5"/>
<linearGradient id="SVGID_82_" gradientUnits="userSpaceOnUse" x1="304.9599" y1="234.9884" x2="378.7924" y2="234.9884">
	<stop  offset="4.748603e-02" style="stop-color:#61DDDA"/>
	<stop  offset="0.8212" style="stop-color:#2FA0EC"/>
</linearGradient>
<path class="st93" d="M377.5,261.8l-71-40.5c-0.9-0.5-1.6-1.8-1.6-3v-9.3c0-1,0.6-1.4,1.3-1l71,40.5c0.9,0.5,1.6,1.8,1.6,3v9.3
	C378.8,261.8,378.2,262.3,377.5,261.8z"/>
<linearGradient id="SVGID_83_" gradientUnits="userSpaceOnUse" x1="304.9599" y1="214.8631" x2="378.7924" y2="214.8631">
	<stop  offset="4.748603e-02" style="stop-color:#61DDDA"/>
	<stop  offset="0.8212" style="stop-color:#2FA0EC"/>
</linearGradient>
<path class="st94" d="M377.5,241.7l-71-40.5c-0.9-0.5-1.6-1.8-1.6-3V189c0-1,0.6-1.4,1.3-1l71,40.5c0.9,0.5,1.6,1.8,1.6,3v9.3
	C378.8,241.7,378.2,242.1,377.5,241.7z"/>
<linearGradient id="SVGID_84_" gradientUnits="userSpaceOnUse" x1="-51.0094" y1="-464.0248" x2="-29.1464" y2="-464.0248" gradientTransform="matrix(-0.4898 0.8719 0.8719 0.4898 786.0428 370.2568)">
	<stop  offset="0" style="stop-color:#593289"/>
	<stop  offset="1" style="stop-color:#7F5DB5"/>
</linearGradient>
<path class="st95" d="M403.3,97.1l-0.1,19.4c0,0.5-0.5,1.2-1,1.5l-2.5,1.4c-0.5,0.3-0.8,0.1-0.8-0.4l0.1-19.4c0-0.5,0.5-1.2,1-1.5
	l2.5-1.4C402.9,96.5,403.3,96.6,403.3,97.1z"/>
<linearGradient id="SVGID_85_" gradientUnits="userSpaceOnUse" x1="-51.099" y1="-462.8964" x2="-29.2359" y2="-462.8964" gradientTransform="matrix(-0.4898 0.8719 0.8719 0.4898 786.0428 370.2568)">
	<stop  offset="6.983240e-02" style="stop-color:#A9BFFC"/>
	<stop  offset="0.433" style="stop-color:#D4DDFA"/>
	<stop  offset="0.8073" style="stop-color:#F9FAFE"/>
	<stop  offset="1" style="stop-color:#EBEFFD"/>
</linearGradient>
<path class="st96" d="M404.3,97.5l-0.1,19.4c0,0.5-0.5,1.2-1,1.5l-2.5,1.4c-0.5,0.3-0.8,0.1-0.8-0.4l0.1-19.4c0-0.5,0.5-1.2,1-1.5
	l2.5-1.4C404,96.9,404.3,97.1,404.3,97.5z"/>
<linearGradient id="SVGID_86_" gradientUnits="userSpaceOnUse" x1="327.2225" y1="19.3879" x2="325.6233" y2="16.9544">
	<stop  offset="0" style="stop-color:#593289"/>
	<stop  offset="1" style="stop-color:#7F5DB5"/>
</linearGradient>
<path class="st97" d="M324.9,17.4c-0.8,0.5-0.7,1.3,0.1,1.7c0.8,0.4,2.1,0.3,2.9-0.2c0.8-0.5,0.7-1.3-0.1-1.7
	C327,16.8,325.7,16.9,324.9,17.4z"/>
<linearGradient id="SVGID_87_" gradientUnits="userSpaceOnUse" x1="322.0199" y1="16.8187" x2="320.4207" y2="14.3852">
	<stop  offset="0" style="stop-color:#593289"/>
	<stop  offset="1" style="stop-color:#7F5DB5"/>
</linearGradient>
<path class="st98" d="M319.7,14.8c-0.8,0.5-0.7,1.3,0.1,1.7c0.8,0.4,2.1,0.3,2.9-0.2c0.8-0.5,0.7-1.3-0.1-1.7
	C321.8,14.3,320.5,14.3,319.7,14.8z"/>
<g>
	<g>
		<path class="st15" d="M203.2,200.6c-10.1,0-18.3-8.2-18.3-18.3v-5.8c0-10.1,8.2-18.3,18.3-18.3c10.1,0,18.3,8.2,18.3,18.3v5.8
			C221.5,192.4,213.3,200.6,203.2,200.6z M203.2,167.7c-4.9,0-8.9,4-8.9,8.9v5.8c0,4.9,4,8.9,8.9,8.9s8.9-4,8.9-8.9v-5.8
			C212.1,171.6,208.1,167.7,203.2,167.7z"/>
	</g>
</g>
<linearGradient id="SVGID_88_" gradientUnits="userSpaceOnUse" x1="202.3205" y1="183.4428" x2="264.9544" y2="183.4428">
	<stop  offset="9.776536e-02" style="stop-color:#A82DA8"/>
	<stop  offset="1" style="stop-color:#CF4EC9"/>
</linearGradient>
<path class="st99" d="M202.3,145.6v59.6c0,8.9,14,16.1,31.3,16.1c17.3,0,31.3-7.2,31.3-16.1v-59.6H202.3z"/>
<linearGradient id="SVGID_89_" gradientUnits="userSpaceOnUse" x1="202.3205" y1="145.6104" x2="264.9544" y2="145.6104">
	<stop  offset="8.379889e-02" style="stop-color:#CF4EC9"/>
	<stop  offset="1" style="stop-color:#F28FE9"/>
</linearGradient>
<ellipse class="st100" cx="233.6" cy="145.6" rx="31.3" ry="15.3"/>
<linearGradient id="SVGID_90_" gradientUnits="userSpaceOnUse" x1="207.0684" y1="145.6104" x2="259.5381" y2="145.6104">
	<stop  offset="9.776536e-02" style="stop-color:#A82DA8"/>
	<stop  offset="1" style="stop-color:#CF4EC9"/>
</linearGradient>
<ellipse class="st101" cx="233.3" cy="145.6" rx="26.2" ry="12.9"/>
<path class="st0" d="M207.6,149c2.7,5.7,13.1,10,25.5,10c13.2,0,24-4.7,25.9-10.9c-2.7-5.7-13.1-10-25.5-10
	C220.3,138,209.5,142.8,207.6,149z"/>
<linearGradient id="SVGID_91_" gradientUnits="userSpaceOnUse" x1="245.7264" y1="176.416" x2="251.8687" y2="176.416">
	<stop  offset="0" style="stop-color:#2B1F56"/>
	<stop  offset="0.8184" style="stop-color:#2E218F"/>
</linearGradient>
<polyline class="st102" points="247.1,157 250.5,158.5 250.5,195.8 "/>
<path class="st103" d="M241.9,205.3c-0.6-0.3-0.9-1-0.9-1.8v-13.7c0-1.2,0.7-2.4,1.6-3l12.6-7.1c0.6-0.4,1.3-0.4,1.9,0
	c0.6,0.3,0.9,1,0.9,1.8v13.7c0,1.2-0.7,2.4-1.6,3l-12.6,7.1c-0.3,0.2-0.7,0.3-1,0.3C242.4,205.5,242.1,205.4,241.9,205.3z
	 M242.4,202.9L242.4,202.9L242.4,202.9z M256.4,182.1C256.4,182.1,256.4,182.1,256.4,182.1L256.4,182.1z"/>
<linearGradient id="SVGID_92_" gradientUnits="userSpaceOnUse" x1="1007.1047" y1="192.8651" x2="1024.1129" y2="192.8651" gradientTransform="matrix(-1 0 0 1 1266.6818 0)">
	<stop  offset="0" style="stop-color:#EC6C1E"/>
	<stop  offset="1" style="stop-color:#AF1D57"/>
</linearGradient>
<path class="st104" d="M243.5,205.7c-0.6-0.3-0.9-1-0.9-1.8v-13.7c0-1.2,0.7-2.4,1.6-3l12.6-7.1c0.6-0.4,1.3-0.4,1.9,0
	c0.6,0.3,0.9,1,0.9,1.8v13.7c0,1.2-0.7,2.4-1.6,3l-12.6,7.1c-0.3,0.2-0.7,0.3-1,0.3C244.1,205.9,243.8,205.8,243.5,205.7z
	 M244,203.3L244,203.3L244,203.3z M258.1,182.4C258.1,182.4,258.1,182.4,258.1,182.4L258.1,182.4z"/>
</svg>
